SplineFontDB: 3.0
FontName: eufm10
FullName: eufm10
FamilyName: eufm10
Weight: Book
Copyright: Copyright (C) 1994, 1995, Basil K. Malyshev. All Rights Reserved.012BaKoMa Fonts Collection, Level-C.
Version: 1.2/19-Jan-95
ItalicAngle: 0
UnderlinePosition: -123
UnderlineWidth: 20
Ascent: 1638
Descent: 410
sfntRevision: 0x00010000
LayerCount: 2
Layer: 0 1 "Back"  1
Layer: 1 1 "Fore"  0
XUID: [1021 99 1815243471 16118442]
FSType: 0
OS2Version: 0
OS2_WeightWidthSlopeOnly: 0
OS2_UseTypoMetrics: 1
CreationTime: -2082844800
ModificationTime: 1421634265
PfmFamily: 17
TTFWeight: 400
TTFWidth: 5
LineGap: 0
VLineGap: 0
Panose: 2 11 5 0 0 0 0 0 0 0
OS2TypoAscent: -145
OS2TypoAOffset: 1
OS2TypoDescent: -39
OS2TypoDOffset: 1
OS2TypoLinegap: 0
OS2WinAscent: 0
OS2WinAOffset: 1
OS2WinDescent: 0
OS2WinDOffset: 1
HheadAscent: -23
HheadAOffset: 1
HheadDescent: -10
HheadDOffset: 1
OS2SubXSize: 410
OS2SubYSize: 369
OS2SubXOff: 0
OS2SubYOff: -449
OS2SupXSize: 410
OS2SupYSize: 369
OS2SupXOff: 0
OS2SupYOff: 1239
OS2StrikeYSize: 102
OS2StrikeYPos: 530
OS2UnicodeRanges: 00000000.00000000.00000000.00000000
MarkAttachClasses: 1
DEI: 91125
TtTable: prep
NPUSHB
 28
 25
 36
 3
 33
 3
 31
 3
 28
 12
 25
 5
 31
 95
 14
 13
 24
 95
 5
 91
 28
 85
 3
 95
 95
 60
 13
 153
 0
SCANTYPE
PUSHW_1
 828
SCANCTRL
SCVTCI
CALL
CALL
EndTTInstrs
TtTable: fpgm
NPUSHB
 22
 21
 20
 19
 18
 17
 16
 15
 14
 13
 12
 11
 10
 9
 8
 7
 6
 5
 4
 3
 2
 1
 0
FDEF
PUSHB_3
 0
 128
 0
RS
DUP
ROLL
DIV
ROLL
SWAP
WS
FLOOR
ODD
ENDF
FDEF
PUSHB_3
 42
 0
 0
RS
EQ
JROT
PUSHB_1
 0
CALL
IF
SLOOP
IP
EIF
PUSHB_1
 0
CALL
IF
SLOOP
ALIGNRP
EIF
PUSHB_1
 0
CALL
IF
PUSHB_1
 10
LOOPCALL
EIF
PUSHB_1
 1
RS
SRP0
PUSHB_1
 0
CALL
IF
SLOOP
ALIGNRP
EIF
PUSHB_1
 0
CALL
IF
PUSHB_1
 10
LOOPCALL
EIF
ENDF
FDEF
CALL
ENDF
FDEF
CALL
PUSHB_1
 2
LOOPCALL
ENDF
FDEF
PUSHB_1
 2
LOOPCALL
ENDF
FDEF
PUSHB_1
 1
DIV
PUSHB_1
 0
SWAP
WS
PUSHB_2
 1
 3
CINDEX
WS
DUP
GC[cur]
DUP
ROUND[Grey]
SUB
ABS
PUSHB_1
 3
CINDEX
GC[cur]
DUP
ROUND[Grey]
DUP
PUSHB_1
 4
RS
SWAP
SUB
DUP
ABS

StartChar: .notdef
Encoding: 65536 -1 0
Width: 1536
Flags: W
LayerCount: 2
Fore
SplineSet
256 0 m 1,0,-1
 256 1280 l 1,1,-1
 1280 1280 l 1,2,-1
 1280 0 l 1,3,-1
 256 0 l 1,0,-1
1247 33 m 1,4,-1
 1247 1247 l 1,5,-1
 289 1247 l 1,6,-1
 289 33 l 1,7,-1
 1247 33 l 1,4,-1
EndSplineSet
EndChar

StartChar: comma
Encoding: 44 44 3
Width: 567
Flags: W
LayerCount: 2
Fore
SplineSet
227 -354 m 1,0,1
 265 -303 265 -303 294.5 -240 c 128,-1,2
 324 -177 324 -177 324 -125 c 0,3,4
 324 -75 324 -75 297 -39 c 2,5,-1
 225 59 l 1,6,7
 205 89 205 89 205 127 c 0,8,9
 205 163 205 163 235 191 c 128,-1,10
 265 219 265 219 301 219 c 0,11,12
 329 219 329 219 369 155.5 c 128,-1,13
 409 92 409 92 424 49 c 0,14,15
 440 5 440 5 440 -55 c 0,16,17
 440 -130 440 -130 389 -209 c 128,-1,18
 338 -288 338 -288 250 -393 c 1,19,-1
 227 -354 l 1,0,1
EndSplineSet
EndChar

StartChar: nine
Encoding: 57 57 4
Width: 1026
Flags: W
LayerCount: 2
Fore
SplineSet
147 -373 m 1,0,-1
 147 -315 l 1,1,2
 276 -315 276 -315 375 -283.5 c 128,-1,3
 474 -252 474 -252 544 -189.5 c 128,-1,4
 614 -127 614 -127 660.5 -32 c 128,-1,5
 707 63 707 63 731 188 c 1,6,-1
 721 195 l 1,7,8
 641 151 641 151 565 119.5 c 128,-1,9
 489 88 489 88 418 70 c 1,10,11
 334 70 334 70 266 102.5 c 128,-1,12
 198 135 198 135 151 192 c 128,-1,13
 104 249 104 249 79.5 322.5 c 128,-1,14
 55 396 55 396 55 479 c 0,15,16
 55 584 55 584 86.5 658.5 c 128,-1,17
 118 733 118 733 174 784 c 128,-1,18
 230 835 230 835 297 871 c 128,-1,19
 364 907 364 907 479 961 c 1,20,21
 608 961 608 961 699 921.5 c 128,-1,22
 790 882 790 882 846.5 809.5 c 128,-1,23
 903 737 903 737 929.5 634.5 c 128,-1,24
 956 532 956 532 956 408 c 0,25,26
 956 245 956 245 896 95 c 128,-1,27
 836 -55 836 -55 723 -168 c 0,28,29
 614 -276 614 -276 465.5 -324.5 c 128,-1,30
 317 -373 317 -373 147 -373 c 1,0,-1
502 193 m 0,31,32
 616 193 616 193 686 249 c 128,-1,33
 756 305 756 305 756 416 c 0,34,35
 756 497 756 497 739 572.5 c 128,-1,36
 722 648 722 648 683.5 711.5 c 128,-1,37
 645 775 645 775 583.5 812.5 c 128,-1,38
 522 850 522 850 436 850 c 0,39,40
 367 850 367 850 322.5 799.5 c 128,-1,41
 278 749 278 749 258 677 c 128,-1,42
 238 605 238 605 238 539 c 0,43,44
 238 460 238 460 268.5 379 c 128,-1,45
 299 298 299 298 358.5 245.5 c 128,-1,46
 418 193 418 193 502 193 c 0,31,32
EndSplineSet
EndChar

StartChar: quoteleft
Encoding: 181 181 5
Width: 438
Flags: W
LayerCount: 2
Fore
SplineSet
240 840 m 0,0,1
 190 840 190 840 141 943.5 c 128,-1,2
 92 1047 92 1047 92 1106 c 0,3,4
 92 1211 92 1211 287 1450 c 1,5,-1
 313 1421 l 1,6,7
 274 1352 274 1352 244.5 1288.5 c 128,-1,8
 215 1225 215 1225 215 1182 c 0,9,10
 215 1130 215 1130 244 1090 c 1,11,-1
 307 987 l 1,12,13
 326 962 326 962 326 932 c 256,14,15
 326 902 326 902 298 871 c 128,-1,16
 270 840 270 840 240 840 c 0,0,1
EndSplineSet
EndChar

StartChar: quotesingle
Encoding: 39 39 6
Width: 434
Flags: W
LayerCount: 2
Fore
SplineSet
180 893 m 1,0,-1
 143 1286 l 1,1,2
 139 1313 139 1313 139 1362 c 0,3,4
 139 1390 139 1390 161 1406.5 c 128,-1,5
 183 1423 183 1423 213 1423 c 0,6,7
 244 1423 244 1423 259 1404 c 128,-1,8
 274 1385 274 1385 274 1354 c 0,9,10
 274 1328 274 1328 266 1272 c 2,11,-1
 213 893 l 1,12,-1
 180 893 l 1,0,-1
EndSplineSet
EndChar

StartChar: M
Encoding: 77 77 7
Width: 2148
Flags: W
LayerCount: 2
Fore
SplineSet
78 -33 m 1,0,-1
 55 0 l 1,1,2
 105 82 105 82 168 149.5 c 128,-1,3
 231 217 231 217 295 217 c 0,4,5
 368 217 368 217 481 109 c 1,6,7
 545 144 545 144 584.5 185.5 c 128,-1,8
 624 227 624 227 649.5 282.5 c 128,-1,9
 675 338 675 338 690 406 c 0,10,11
 721 545 721 545 721 752 c 0,12,13
 721 878 721 878 689 998 c 128,-1,14
 657 1118 657 1118 579 1196 c 128,-1,15
 501 1274 501 1274 371 1274 c 0,16,17
 333 1274 333 1274 292.5 1255 c 128,-1,18
 252 1236 252 1236 224.5 1203.5 c 128,-1,19
 197 1171 197 1171 197 1133 c 0,20,21
 197 1093 197 1093 220.5 1056.5 c 128,-1,22
 244 1020 244 1020 295 958 c 1,23,24
 393 846 393 846 393 772 c 0,25,26
 393 691 393 691 317 620 c 128,-1,27
 241 549 241 549 143 500 c 1,28,-1
 98 532 l 1,29,30
 157 563 157 563 199.5 603.5 c 128,-1,31
 242 644 242 644 242 696 c 0,32,33
 242 733 242 733 166 827 c 0,34,35
 55 962 55 962 55 1024 c 0,36,37
 55 1119 55 1119 130 1208 c 128,-1,38
 205 1297 205 1297 317 1351 c 128,-1,39
 429 1405 429 1405 524 1405 c 0,40,41
 597 1405 597 1405 663.5 1377 c 128,-1,42
 730 1349 730 1349 778 1300 c 1,43,44
 849 1231 849 1231 872 1136.5 c 128,-1,45
 895 1042 895 1042 895 915 c 0,46,47
 895 719 895 719 860.5 554 c 128,-1,48
 826 389 826 389 741 250 c 1,49,-1
 393 -55 l 1,50,51
 285 53 285 53 219 53 c 0,52,53
 178 53 178 53 142 29 c 128,-1,54
 106 5 106 5 78 -33 c 1,0,-1
807 -33 m 1,55,-1
 786 10 l 1,56,57
 851 100 851 100 901 156.5 c 128,-1,58
 951 213 951 213 991 213 c 0,59,60
 1029 213 1029 213 1062.5 195 c 128,-1,61
 1096 177 1096 177 1145 141 c 1,62,63
 1200 189 1200 189 1227 298 c 128,-1,64
 1254 407 1254 407 1260 516.5 c 128,-1,65
 1266 626 1266 626 1266 752 c 0,66,67
 1266 915 1266 915 1249 1012 c 1,68,69
 1233 1117 1233 1117 1193 1174 c 128,-1,70
 1153 1231 1153 1231 1059 1231 c 0,71,72
 1003 1231 1003 1231 956.5 1185 c 128,-1,73
 910 1139 910 1139 885 1077 c 1,74,-1
 862 1165 l 1,75,76
 925 1246 925 1246 1014.5 1299 c 128,-1,77
 1104 1352 1104 1352 1200 1352 c 0,78,79
 1387 1352 1387 1352 1427 1090 c 1,80,81
 1450 952 1450 952 1450 893 c 0,82,83
 1450 565 1450 565 1319 262 c 1,84,-1
 1069 -45 l 1,85,86
 1028 -8 1028 -8 991.5 17.5 c 128,-1,87
 955 43 955 43 928 43 c 256,88,89
 901 43 901 43 874 23.5 c 128,-1,90
 847 4 847 4 807 -33 c 1,55,-1
1427 1090 m 1,91,-1
 1407 1184 l 1,92,93
 1442 1233 1442 1233 1511.5 1287.5 c 128,-1,94
 1581 1342 1581 1342 1660 1379.5 c 128,-1,95
 1739 1417 1739 1417 1798 1417 c 0,96,97
 1864 1417 1864 1417 1895 1374.5 c 128,-1,98
 1926 1332 1926 1332 1952 1253 c 0,99,100
 1969 1199 1969 1199 1989 1173 c 128,-1,101
 2009 1147 2009 1147 2054 1147 c 0,102,103
 2096 1147 2096 1147 2146 1165 c 1,104,-1
 1886 1001 l 1,105,106
 1870 1005 1870 1005 1855 1020.5 c 128,-1,107
 1840 1036 1840 1036 1829 1060 c 128,-1,108
 1818 1084 1818 1084 1811 1107.5 c 128,-1,109
 1804 1131 1804 1131 1798 1145 c 1,110,111
 1775 1218 1775 1218 1754 1252 c 128,-1,112
 1733 1286 1733 1286 1679 1286 c 0,113,114
 1600 1286 1600 1286 1535 1229.5 c 128,-1,115
 1470 1173 1470 1173 1427 1090 c 1,91,-1
1810 -55 m 1,116,-1
 1690 164 l 1,117,-1
 1690 555 l 2,118,119
 1690 664 1690 664 1722 817 c 1,120,121
 1786 917 1786 917 1886 1001 c 1,122,-1
 2146 1165 l 1,123,-1
 2146 1133 l 1,124,125
 2020 1071 2020 1071 1919 969 c 1,126,127
 1891 913 1891 913 1876 845.5 c 128,-1,128
 1861 778 1861 778 1857 710 c 128,-1,129
 1853 642 1853 642 1853 567 c 0,130,131
 1853 500 1853 500 1854.5 450.5 c 128,-1,132
 1856 401 1856 401 1860.5 357.5 c 128,-1,133
 1865 314 1865 314 1876 283 c 1,134,135
 1885 251 1885 251 1915 201.5 c 128,-1,136
 1945 152 1945 152 1964 152 c 0,137,138
 1982 152 1982 152 2027.5 171 c 128,-1,139
 2073 190 2073 190 2103 207 c 1,140,-1
 2103 164 l 1,141,-1
 1810 -55 l 1,116,-1
EndSplineSet
EndChar

StartChar: Z
Encoding: 90 90 8
Width: 1233
Flags: W
LayerCount: 2
Fore
SplineSet
45 -86 m 1,0,-1
 23 -53 l 1,1,2
 186 76 186 76 305 76 c 0,3,4
 372 76 372 76 387.5 38.5 c 128,-1,5
 403 1 403 1 403 -88 c 0,6,7
 403 -137 403 -137 411 -163.5 c 128,-1,8
 419 -190 419 -190 442 -204.5 c 128,-1,9
 465 -219 465 -219 512 -219 c 0,10,11
 648 -219 648 -219 736.5 -138 c 128,-1,12
 825 -57 825 -57 865 68 c 128,-1,13
 905 193 905 193 905 326 c 0,14,15
 905 487 905 487 823 570 c 128,-1,16
 741 653 741 653 578 653 c 0,17,18
 479 653 479 653 393 610 c 1,19,-1
 371 633 l 1,20,-1
 459 762 l 1,21,22
 535 762 535 762 612 814.5 c 128,-1,23
 689 867 689 867 737.5 950 c 128,-1,24
 786 1033 786 1033 786 1110 c 0,25,26
 786 1166 786 1166 739 1198.5 c 128,-1,27
 692 1231 692 1231 633 1231 c 0,28,29
 583 1231 583 1231 476 1219.5 c 128,-1,30
 369 1208 369 1208 328 1208 c 0,31,32
 186 1208 186 1208 186 1296 c 1,33,-1
 328 1493 l 1,34,-1
 360 1493 l 1,35,36
 344 1471 344 1471 344 1444 c 0,37,38
 344 1397 344 1397 394.5 1384.5 c 128,-1,39
 445 1372 445 1372 512 1372 c 0,40,41
 567 1372 567 1372 623 1378 c 1,42,43
 695 1382 695 1382 731 1382 c 0,44,45
 961 1382 961 1382 961 1221 c 0,46,47
 961 1127 961 1127 909.5 1041 c 128,-1,48
 858 955 858 955 780 885 c 128,-1,49
 702 815 702 815 612 762 c 1,50,51
 690 774 690 774 731 774 c 0,52,53
 833 774 833 774 919.5 740 c 128,-1,54
 1006 706 1006 706 1057 631 c 1,55,56
 1090 520 1090 520 1090 401 c 0,57,58
 1090 273 1090 273 1047 146 c 128,-1,59
 1004 19 1004 19 926 -98 c 1,60,61
 859 -155 859 -155 776 -198 c 128,-1,62
 693 -241 693 -241 606 -263 c 128,-1,63
 519 -285 519 -285 426 -285 c 0,64,65
 316 -285 316 -285 229 -262 c 1,66,67
 229 -170 229 -170 215.5 -101.5 c 128,-1,68
 202 -33 202 -33 154 -33 c 0,69,70
 115 -33 115 -33 45 -86 c 1,0,-1
EndSplineSet
EndChar

StartChar: g
Encoding: 103 103 9
Width: 1030
Flags: W
LayerCount: 2
Fore
SplineSet
55 -295 m 1,0,-1
 33 -268 l 1,1,-1
 301 -41 l 1,2,-1
 160 133 l 1,3,4
 152 269 152 269 152 338 c 0,5,6
 152 553 152 553 184 754 c 1,7,8
 323 852 323 852 514 963 c 1,9,10
 608 900 608 900 748 868 c 1,11,-1
 895 952 l 1,12,-1
 905 940 l 1,13,14
 860 813 860 813 860 307 c 0,15,16
 860 271 860 271 872.5 210 c 128,-1,17
 885 149 885 149 904.5 74 c 128,-1,18
 924 -1 924 -1 932 -37 c 1,19,20
 850 -140 850 -140 765.5 -236.5 c 128,-1,21
 681 -333 681 -333 598 -412 c 1,22,23
 531 -428 531 -428 524 -428 c 0,24,25
 346 -428 346 -428 127 -258 c 1,26,-1
 55 -295 l 1,0,-1
303 -117 m 1,27,28
 466 -276 466 -276 604 -276 c 0,29,30
 682 -276 682 -276 715 -233 c 128,-1,31
 748 -190 748 -190 748 -113 c 0,32,33
 748 -73 748 -73 698 190 c 1,34,35
 578 104 578 104 482.5 30 c 128,-1,36
 387 -44 387 -44 303 -117 c 1,27,28
328 254 m 1,37,38
 357 219 357 219 389 186.5 c 128,-1,39
 421 154 421 154 471 106 c 1,40,-1
 696 252 l 1,41,42
 696 491 696 491 715 719 c 1,43,44
 529 741 529 741 365 797 c 1,45,46
 336 743 336 743 326.5 680.5 c 128,-1,47
 317 618 317 618 317 532 c 0,48,49
 317 366 317 366 328 254 c 1,37,38
EndSplineSet
EndChar

StartChar: t
Encoding: 116 116 10
Width: 682
Flags: W
LayerCount: 2
Fore
SplineSet
227 127 m 1,0,-1
 233 723 l 1,1,-1
 53 723 l 1,2,-1
 129 797 l 1,3,-1
 238 797 l 1,4,5
 238 839 238 839 240 921 c 128,-1,6
 242 1003 242 1003 242 1044 c 0,7,8
 242 1108 242 1108 240 1141 c 1,9,-1
 467 1311 l 1,10,-1
 494 1284 l 1,11,-1
 438 1231 l 1,12,13
 401 1192 401 1192 401 797 c 1,14,-1
 618 797 l 1,15,-1
 557 723 l 1,16,-1
 399 723 l 1,17,18
 399 348 399 348 403 252 c 1,19,20
 426 230 426 230 456 203 c 128,-1,21
 486 176 486 176 514.5 157.5 c 128,-1,22
 543 139 543 139 565 139 c 0,23,24
 573 139 573 139 578 141 c 2,25,-1
 707 205 l 1,26,-1
 715 160 l 1,27,-1
 434 -43 l 1,28,-1
 227 127 l 1,0,-1
EndSplineSet
EndChar

StartChar: dalt
Encoding: 162 162 11
Width: 1020
Flags: W
LayerCount: 2
Fore
SplineSet
160 168 m 1,0,1
 156 286 156 286 156 346 c 0,2,3
 156 543 156 543 180 737 c 1,4,5
 272 824 272 824 440 942 c 1,6,-1
 479 922 l 1,7,-1
 356 797 l 1,8,9
 333 742 333 742 326 679 c 128,-1,10
 319 616 319 616 319 537 c 0,11,12
 319 445 319 445 334 287 c 0,13,14
 336 268 336 268 358 246 c 0,15,16
 388 216 388 216 417 195 c 128,-1,17
 446 174 446 174 496.5 140 c 128,-1,18
 547 106 547 106 571 88 c 1,19,20
 711 244 711 244 711 645 c 0,21,22
 711 721 711 721 702 831 c 1,23,24
 628 907 628 907 551.5 967 c 128,-1,25
 475 1027 475 1027 385 1077 c 128,-1,26
 295 1127 295 1127 205 1155 c 1,27,-1
 80 1128 l 1,28,-1
 72 1165 l 1,29,30
 179 1220 179 1220 324 1262 c 1,31,32
 490 1212 490 1212 631 1133 c 128,-1,33
 772 1054 772 1054 879 938 c 1,34,35
 885 853 885 853 885 762 c 0,36,37
 885 607 885 607 867.5 469.5 c 128,-1,38
 850 332 850 332 805 209 c 1,39,40
 667 95 667 95 420 -61 c 1,41,42
 296 32 296 32 160 168 c 1,0,1
EndSplineSet
EndChar

StartChar: exclam
Encoding: 33 33 12
Width: 604
Flags: W
LayerCount: 2
Fore
SplineSet
301 -25 m 0,0,1
 253 -25 253 -25 218.5 11.5 c 128,-1,2
 184 48 184 48 184 96 c 0,3,4
 184 145 184 145 219 179 c 128,-1,5
 254 213 254 213 301 213 c 0,6,7
 350 213 350 213 383 178.5 c 128,-1,8
 416 144 416 144 416 96 c 256,9,10
 416 48 416 48 383 11.5 c 128,-1,11
 350 -25 350 -25 301 -25 c 0,0,1
268 377 m 1,12,-1
 213 1159 l 2,13,14
 211 1201 211 1201 209 1231.5 c 128,-1,15
 207 1262 207 1262 207 1278 c 0,16,17
 207 1344 207 1344 228 1378.5 c 128,-1,18
 249 1413 249 1413 311 1413 c 0,19,20
 349 1413 349 1413 368 1386 c 128,-1,21
 387 1359 387 1359 387 1319 c 0,22,23
 387 1287 387 1287 377 1139 c 1,24,-1
 301 381 l 1,25,-1
 268 377 l 1,12,-1
EndSplineSet
EndChar

StartChar: period
Encoding: 46 46 13
Width: 567
Flags: W
LayerCount: 2
Fore
SplineSet
291 -31 m 0,0,1
 244 -31 244 -31 212 6 c 128,-1,2
 180 43 180 43 180 90 c 256,3,4
 180 137 180 137 212 173 c 128,-1,5
 244 209 244 209 291 209 c 0,6,7
 341 209 341 209 376.5 174.5 c 128,-1,8
 412 140 412 140 412 90 c 256,9,10
 412 40 412 40 376.5 4.5 c 128,-1,11
 341 -31 341 -31 291 -31 c 0,0,1
EndSplineSet
EndChar

StartChar: semicolon
Encoding: 59 59 14
Width: 442
Flags: W
LayerCount: 2
Fore
SplineSet
152 -362 m 1,0,1
 193 -307 193 -307 220.5 -244.5 c 128,-1,2
 248 -182 248 -182 248 -131 c 0,3,4
 248 -90 248 -90 221 -53 c 1,5,-1
 152 51 l 2,6,7
 133 80 133 80 133 104 c 0,8,9
 133 148 133 148 156 170 c 1,10,-1
 156 180 l 1,11,12
 184 203 184 203 219 203 c 0,13,14
 255 203 255 203 289.5 157 c 128,-1,15
 324 111 324 111 345.5 48.5 c 128,-1,16
 367 -14 367 -14 367 -49 c 0,17,18
 367 -105 367 -105 337.5 -165.5 c 128,-1,19
 308 -226 308 -226 266 -282.5 c 128,-1,20
 224 -339 224 -339 182 -389 c 1,21,-1
 152 -362 l 1,0,1
205 702 m 0,22,23
 160 702 160 702 128 737 c 128,-1,24
 96 772 96 772 96 819 c 256,25,26
 96 866 96 866 128 902 c 128,-1,27
 160 938 160 938 205 938 c 0,28,29
 254 938 254 938 293 904 c 128,-1,30
 332 870 332 870 332 819 c 256,31,32
 332 768 332 768 293.5 735 c 128,-1,33
 255 702 255 702 205 702 c 0,22,23
EndSplineSet
EndChar

StartChar: B
Encoding: 66 66 15
Width: 1810
Flags: W
LayerCount: 2
Fore
SplineSet
229 -12 m 1,0,-1
 197 43 l 1,1,2
 365 145 365 145 446 197 c 1,3,4
 631 305 631 305 711 424 c 1,5,6
 738 466 738 466 746 548 c 128,-1,7
 754 630 754 630 754 729 c 0,8,9
 754 860 754 860 726.5 982.5 c 128,-1,10
 699 1105 699 1105 622 1189.5 c 128,-1,11
 545 1274 545 1274 414 1274 c 0,12,13
 373 1274 373 1274 332.5 1254.5 c 128,-1,14
 292 1235 292 1235 266 1200.5 c 128,-1,15
 240 1166 240 1166 240 1122 c 0,16,17
 240 1068 240 1068 328 969 c 1,18,19
 426 855 426 855 426 795 c 0,20,21
 426 708 426 708 349.5 636 c 128,-1,22
 273 564 273 564 176 522 c 1,23,-1
 143 545 l 1,24,25
 274 620 274 620 274 709 c 0,26,27
 274 732 274 732 240.5 778 c 128,-1,28
 207 824 207 824 176 860 c 1,29,30
 137 910 137 910 117.5 949 c 128,-1,31
 98 988 98 988 98 1034 c 0,32,33
 98 1103 98 1103 141.5 1172.5 c 128,-1,34
 185 1242 185 1242 255 1297 c 128,-1,35
 325 1352 325 1352 402 1383.5 c 128,-1,36
 479 1415 479 1415 545 1415 c 0,37,38
 650 1415 650 1415 738 1354.5 c 128,-1,39
 826 1294 826 1294 883 1198 c 1,40,41
 970 1284 970 1284 1078.5 1344.5 c 128,-1,42
 1187 1405 1187 1405 1286 1405 c 0,43,44
 1361 1405 1361 1405 1396 1379 c 128,-1,45
 1431 1353 1431 1353 1441.5 1320.5 c 128,-1,46
 1452 1288 1452 1288 1473 1186 c 1,47,48
 1480 1146 1480 1146 1488.5 1115 c 128,-1,49
 1497 1084 1497 1084 1515 1059 c 128,-1,50
 1533 1034 1533 1034 1563 1034 c 0,51,52
 1607 1034 1607 1034 1669 1057 c 1,53,-1
 1679 1012 l 1,54,55
 1530 954 1530 954 1460 903 c 0,56,57
 1432 883 1432 883 1416.5 872 c 128,-1,58
 1401 861 1401 861 1373.5 844 c 128,-1,59
 1346 827 1346 827 1331.5 818.5 c 128,-1,60
 1317 810 1317 810 1276 784 c 1,61,62
 1351 784 1351 784 1417 762.5 c 128,-1,63
 1483 741 1483 741 1531.5 698.5 c 128,-1,64
 1580 656 1580 656 1607 595.5 c 128,-1,65
 1634 535 1634 535 1634 457 c 0,66,67
 1634 338 1634 338 1569 205 c 1,68,69
 1453 113 1453 113 1365 49 c 128,-1,70
 1277 -15 1277 -15 1231 -33 c 0,71,72
 1175 -55 1175 -55 1100 -55 c 0,73,74
 979 -55 979 -55 817 10 c 1,75,76
 607 98 607 98 512 98 c 0,77,78
 389 98 389 98 229 -12 c 1,0,-1
623 240 m 1,79,80
 702 240 702 240 785 217 c 128,-1,81
 868 194 868 194 971 152 c 1,82,83
 1035 127 1035 127 1076 112 c 128,-1,84
 1117 97 1117 97 1159.5 86.5 c 128,-1,85
 1202 76 1202 76 1233 76 c 0,86,87
 1304 76 1304 76 1355.5 116 c 128,-1,88
 1407 156 1407 156 1433.5 221 c 128,-1,89
 1460 286 1460 286 1460 358 c 0,90,91
 1460 460 1460 460 1410.5 537 c 128,-1,92
 1361 614 1361 614 1275.5 655 c 128,-1,93
 1190 696 1190 696 1090 696 c 0,94,95
 997 696 997 696 930 666 c 1,96,97
 914 531 914 531 862 424 c 1,98,-1
 623 240 l 1,79,80
936 731 m 1,99,100
 1114 791 1114 791 1167 817 c 2,101,-1
 1384 926 l 1,102,103
 1339 937 1339 937 1309 1100 c 1,104,105
 1294 1199 1294 1199 1269.5 1247.5 c 128,-1,106
 1245 1296 1245 1296 1167 1296 c 0,107,108
 1077 1296 1077 1296 1017.5 1234 c 128,-1,109
 958 1172 958 1172 928 1077 c 1,110,111
 938 1022 938 1022 938 817 c 0,112,113
 938 760 938 760 936 731 c 1,99,100
EndSplineSet
EndChar

StartChar: O
Encoding: 79 79 16
Width: 1694
Flags: W
LayerCount: 2
Fore
SplineSet
55 -33 m 1,0,-1
 23 0 l 1,1,2
 120 129 120 129 209 217 c 1,3,4
 285 244 285 244 334 298.5 c 128,-1,5
 383 353 383 353 383 424 c 0,6,7
 383 472 383 472 359.5 519 c 128,-1,8
 336 566 336 566 295 621 c 0,9,10
 273 650 273 650 242.5 691.5 c 128,-1,11
 212 733 212 733 188 774 c 128,-1,12
 164 815 164 815 164 838 c 0,13,14
 164 948 164 948 245.5 1046 c 128,-1,15
 327 1144 327 1144 436 1208 c 1,16,-1
 479 1188 l 1,17,18
 338 1082 338 1082 338 991 c 0,19,20
 338 953 338 953 353 911.5 c 128,-1,21
 368 870 368 870 390 830 c 128,-1,22
 412 790 412 790 436 752 c 0,23,24
 480 682 480 682 507.5 627.5 c 128,-1,25
 535 573 535 573 535 532 c 0,26,27
 535 402 535 402 338 229 c 1,28,29
 377 229 377 229 439.5 205.5 c 128,-1,30
 502 182 502 182 600 141 c 1,31,32
 775 76 775 76 928 76 c 0,33,34
 1001 76 1001 76 1071 104.5 c 128,-1,35
 1141 133 1141 133 1195.5 184.5 c 128,-1,36
 1250 236 1250 236 1280 305 c 0,37,38
 1341 443 1341 443 1341 676 c 0,39,40
 1341 813 1341 813 1320 910.5 c 128,-1,41
 1299 1008 1299 1008 1248.5 1077.5 c 128,-1,42
 1198 1147 1198 1147 1109 1184 c 128,-1,43
 1020 1221 1020 1221 885 1221 c 0,44,45
 864 1221 864 1221 825.5 1219 c 128,-1,46
 787 1217 787 1217 758.5 1215.5 c 128,-1,47
 730 1214 730 1214 711 1214 c 0,48,49
 657 1214 657 1214 602 1237.5 c 128,-1,50
 547 1261 547 1261 547 1307 c 0,51,52
 547 1344 547 1344 567.5 1371.5 c 128,-1,53
 588 1399 588 1399 631.5 1437.5 c 128,-1,54
 675 1476 675 1476 688 1493 c 1,55,-1
 719 1493 l 1,56,57
 700 1463 700 1463 700 1442 c 0,58,59
 700 1394 700 1394 823 1375 c 128,-1,60
 946 1356 946 1356 1036 1356 c 0,61,62
 1086 1356 1086 1356 1154 1340.5 c 128,-1,63
 1222 1325 1222 1325 1285 1296 c 128,-1,64
 1348 1267 1348 1267 1384 1231 c 0,65,66
 1526 1089 1526 1089 1526 817 c 0,67,68
 1526 636 1526 636 1485.5 481.5 c 128,-1,69
 1445 327 1445 327 1341 227 c 1,70,71
 1018 -55 1018 -55 797 -55 c 0,72,73
 634 -55 634 -55 469 10 c 1,74,75
 384 46 384 46 343 61 c 128,-1,76
 302 76 302 76 252 76 c 0,77,78
 194 76 194 76 141 46.5 c 128,-1,79
 88 17 88 17 55 -33 c 1,0,-1
EndSplineSet
EndChar

StartChar: i
Encoding: 105 105 17
Width: 571
Flags: W
LayerCount: 2
Fore
SplineSet
186 113 m 1,0,1
 203 233 203 233 203 393 c 0,2,3
 203 560 203 560 182 752 c 1,4,5
 164 776 164 776 141 799 c 1,6,7
 125 795 125 795 55 756 c 1,8,-1
 29 782 l 1,9,10
 132 868 132 868 244 971 c 1,11,12
 309 903 309 903 367 860 c 1,13,14
 340 658 340 658 340 477 c 0,15,16
 340 398 340 398 344 348 c 128,-1,17
 348 298 348 298 367 246 c 128,-1,18
 386 194 386 194 426 154 c 1,19,20
 430 154 430 154 434.5 158.5 c 128,-1,21
 439 163 439 163 444 164 c 1,22,-1
 535 209 l 1,23,-1
 549 170 l 1,24,25
 422 52 422 52 295 -43 c 1,26,-1
 186 113 l 1,0,1
266 1137 m 1,27,28
 209 1189 209 1189 147 1264 c 1,29,30
 167 1284 167 1284 206.5 1318 c 128,-1,31
 246 1352 246 1352 270 1380 c 1,32,33
 349 1287 349 1287 383 1262 c 1,34,-1
 266 1137 l 1,27,28
EndSplineSet
EndChar

StartChar: v
Encoding: 118 118 18
Width: 1047
Flags: W
LayerCount: 2
Fore
SplineSet
188 129 m 1,0,1
 197 240 197 240 197 387 c 0,2,3
 197 524 197 524 188 727 c 1,4,5
 169 755 169 755 153 777.5 c 128,-1,6
 137 800 137 800 125 820.5 c 128,-1,7
 113 841 113 841 113 852 c 0,8,9
 113 885 113 885 135 927 c 128,-1,10
 157 969 157 969 190.5 1013 c 128,-1,11
 224 1057 224 1057 246 1085 c 1,12,-1
 281 1079 l 1,13,14
 252 1033 252 1033 252 997 c 0,15,16
 252 921 252 921 346 831 c 1,17,-1
 350 760 l 1,18,-1
 649 977 l 1,19,20
 765 900 765 900 885 852 c 1,21,22
 889 712 889 712 889 647 c 0,23,24
 889 491 889 491 879 378.5 c 128,-1,25
 869 266 869 266 831 176 c 1,26,-1
 393 -57 l 1,27,28
 357 -17 357 -17 301 34 c 128,-1,29
 245 85 245 85 188 129 c 1,0,1
424 190 m 2,30,-1
 502 131 l 1,31,32
 540 100 540 100 582 100 c 0,33,34
 622 100 622 100 652 138 c 128,-1,35
 682 176 682 176 698 221 c 0,36,37
 735 324 735 324 735 494 c 0,38,39
 735 605 735 605 719 733 c 1,40,41
 658 786 658 786 543 811 c 1,42,43
 466 780 466 780 358 705 c 1,44,45
 358 681 358 681 356 625 c 128,-1,46
 354 569 354 569 353.5 540 c 128,-1,47
 353 511 353 511 351.5 465.5 c 128,-1,48
 350 420 350 420 350 385 c 0,49,50
 350 312 350 312 363.5 268.5 c 128,-1,51
 377 225 377 225 424 190 c 2,30,-1
EndSplineSet
EndChar

StartChar: falt
Encoding: 164 164 19
Width: 674
Flags: W
LayerCount: 2
Fore
SplineSet
168 -444 m 1,0,1
 225 -263 225 -263 237.5 -124.5 c 128,-1,2
 250 14 250 14 250 262 c 1,3,4
 250 259 250 259 246 449 c 0,5,6
 245 485 245 485 244.5 522 c 128,-1,7
 244 559 244 559 243 595.5 c 128,-1,8
 242 632 242 632 241.5 665 c 128,-1,9
 241 698 241 698 240 729 c 1,10,-1
 57 729 l 1,11,-1
 135 795 l 1,12,-1
 242 795 l 1,13,-1
 213 928 l 1,14,15
 186 1066 186 1066 186 1081 c 0,16,17
 186 1169 186 1169 245.5 1248 c 128,-1,18
 305 1327 305 1327 393 1389 c 1,19,20
 406 1391 406 1391 430 1391 c 0,21,22
 562 1391 562 1391 647 1309 c 1,23,-1
 551 1120 l 1,24,-1
 530 1118 l 1,25,26
 515 1153 515 1153 492.5 1183.5 c 128,-1,27
 470 1214 470 1214 440 1234.5 c 128,-1,28
 410 1255 410 1255 373 1255 c 0,29,30
 328 1255 328 1255 299 1226 c 128,-1,31
 270 1197 270 1197 270 1153 c 0,32,33
 270 1122 270 1122 311 1042 c 2,34,-1
 414 846 l 1,35,36
 428 817 428 817 430 795 c 1,37,-1
 651 795 l 1,38,-1
 606 729 l 1,39,-1
 422 729 l 1,40,41
 422 658 422 658 418 514 c 0,42,43
 414 366 414 366 414 297 c 0,44,45
 414 151 414 151 408.5 62.5 c 128,-1,46
 403 -26 403 -26 378.5 -117 c 128,-1,47
 354 -208 354 -208 299 -307 c 1,48,-1
 207 -459 l 1,49,-1
 168 -444 l 1,0,1
EndSplineSet
EndChar

StartChar: zero
Encoding: 48 48 20
Width: 1026
Flags: W
LayerCount: 2
Fore
SplineSet
436 -27 m 0,0,1
 323 -27 323 -27 243.5 34.5 c 128,-1,2
 164 96 164 96 124 195.5 c 128,-1,3
 84 295 84 295 84 403 c 0,4,5
 84 593 84 593 213.5 750 c 128,-1,6
 343 907 343 907 535 1010 c 1,7,8
 611 988 611 988 683 942 c 128,-1,9
 755 896 755 896 812 831.5 c 128,-1,10
 869 767 869 767 901.5 690.5 c 128,-1,11
 934 614 934 614 934 530 c 0,12,13
 934 440 934 440 892 340 c 128,-1,14
 850 240 850 240 778.5 157 c 128,-1,15
 707 74 707 74 617.5 23.5 c 128,-1,16
 528 -27 528 -27 436 -27 c 0,0,1
539 121 m 0,17,18
 663 121 663 121 721.5 211 c 128,-1,19
 780 301 780 301 780 434 c 0,20,21
 780 536 780 536 739.5 622 c 128,-1,22
 699 708 699 708 624 767.5 c 128,-1,23
 549 827 549 827 451 848 c 1,24,25
 360 786 360 786 321 750.5 c 128,-1,26
 282 715 282 715 263 660.5 c 128,-1,27
 244 606 244 606 244 510 c 0,28,29
 244 416 244 416 276.5 326.5 c 128,-1,30
 309 237 309 237 376 179 c 128,-1,31
 443 121 443 121 539 121 c 0,17,18
EndSplineSet
EndChar

StartChar: equal
Encoding: 61 61 21
Width: 1548
Flags: W
LayerCount: 2
Fore
SplineSet
111 270 m 1,0,-1
 129 350 l 1,1,-1
 1485 350 l 1,2,-1
 1466 270 l 1,3,-1
 111 270 l 1,0,-1
111 674 m 1,4,-1
 129 754 l 1,5,-1
 1485 754 l 1,6,-1
 1466 674 l 1,7,-1
 111 674 l 1,4,-1
EndSplineSet
EndChar

StartChar: D
Encoding: 68 68 22
Width: 1702
Flags: W
LayerCount: 2
Fore
SplineSet
102 -33 m 1,0,-1
 72 0 l 1,1,2
 148 154 148 154 289 272 c 1,3,4
 352 272 352 272 428.5 293 c 128,-1,5
 505 314 505 314 558.5 358 c 128,-1,6
 612 402 612 402 612 469 c 0,7,8
 612 510 612 510 594 550.5 c 128,-1,9
 576 591 576 591 547 623 c 0,10,11
 527 645 527 645 498 679 c 128,-1,12
 469 713 469 713 447.5 745 c 128,-1,13
 426 777 426 777 426 799 c 0,14,15
 426 867 426 867 480.5 936 c 128,-1,16
 535 1005 535 1005 611 1060.5 c 128,-1,17
 687 1116 687 1116 754 1149 c 1,18,-1
 786 1126 l 1,19,20
 735 1094 735 1094 672.5 1024 c 128,-1,21
 610 954 610 954 610 907 c 0,22,23
 610 894 610 894 623.5 869 c 128,-1,24
 637 844 637 844 658.5 812 c 128,-1,25
 680 780 680 780 698 754 c 0,26,27
 740 693 740 693 768.5 645 c 128,-1,28
 797 597 797 597 797 567 c 0,29,30
 797 477 797 477 710.5 396 c 128,-1,31
 624 315 624 315 516 260 c 1,32,33
 640 237 640 237 776 184 c 1,34,35
 882 144 882 144 954 120 c 128,-1,36
 1026 96 1026 96 1049 96 c 0,37,38
 1169 96 1169 96 1286 272 c 0,39,40
 1337 348 1337 348 1355.5 447 c 128,-1,41
 1374 546 1374 546 1374 664 c 0,42,43
 1374 812 1374 812 1324.5 925 c 128,-1,44
 1275 1038 1275 1038 1186.5 1110 c 128,-1,45
 1098 1182 1098 1182 977.5 1217.5 c 128,-1,46
 857 1253 857 1253 709 1253 c 0,47,48
 447 1253 447 1253 287 1129.5 c 128,-1,49
 127 1006 127 1006 98 752 c 1,50,-1
 55 774 l 1,51,52
 55 985 55 985 145.5 1127 c 128,-1,53
 236 1269 236 1269 395 1337 c 128,-1,54
 554 1405 554 1405 764 1405 c 0,55,56
 913 1405 913 1405 1046.5 1376.5 c 128,-1,57
 1180 1348 1180 1348 1288 1283.5 c 128,-1,58
 1396 1219 1396 1219 1461 1107.5 c 128,-1,59
 1526 996 1526 996 1526 838 c 0,60,61
 1526 552 1526 552 1407 272 c 1,62,63
 1384 249 1384 249 1319 184 c 128,-1,64
 1254 119 1254 119 1194 68 c 128,-1,65
 1134 17 1134 17 1070.5 -19 c 128,-1,66
 1007 -55 1007 -55 961 -55 c 0,67,68
 933 -55 933 -55 890.5 -40 c 128,-1,69
 848 -25 848 -25 756 10 c 1,70,71
 652 52 652 52 521.5 91.5 c 128,-1,72
 391 131 391 131 319 131 c 0,73,74
 275 131 275 131 234.5 107 c 128,-1,75
 194 83 194 83 159.5 44.5 c 128,-1,76
 125 6 125 6 102 -33 c 1,0,-1
EndSplineSet
EndChar

StartChar: Q
Encoding: 81 81 23
Width: 1694
Flags: W
LayerCount: 2
Fore
SplineSet
55 -35 m 1,0,-1
 23 -2 l 1,1,2
 116 126 116 126 209 217 c 1,3,4
 285 244 285 244 334 298.5 c 128,-1,5
 383 353 383 353 383 424 c 0,6,7
 383 472 383 472 359.5 519 c 128,-1,8
 336 566 336 566 295 621 c 0,9,10
 273 650 273 650 242.5 691.5 c 128,-1,11
 212 733 212 733 188 774 c 128,-1,12
 164 815 164 815 164 838 c 0,13,14
 164 948 164 948 245.5 1046 c 128,-1,15
 327 1144 327 1144 436 1208 c 1,16,-1
 479 1188 l 1,17,18
 338 1082 338 1082 338 991 c 0,19,20
 338 953 338 953 353 911.5 c 128,-1,21
 368 870 368 870 390 830 c 128,-1,22
 412 790 412 790 436 752 c 0,23,24
 480 682 480 682 507.5 627.5 c 128,-1,25
 535 573 535 573 535 532 c 0,26,27
 535 402 535 402 338 229 c 1,28,29
 377 229 377 229 439.5 205.5 c 128,-1,30
 502 182 502 182 600 141 c 1,31,32
 775 76 775 76 928 76 c 0,33,34
 1001 76 1001 76 1071 104.5 c 128,-1,35
 1141 133 1141 133 1195.5 184.5 c 128,-1,36
 1250 236 1250 236 1280 305 c 0,37,38
 1341 443 1341 443 1341 676 c 0,39,40
 1341 813 1341 813 1320 910.5 c 128,-1,41
 1299 1008 1299 1008 1248.5 1077.5 c 128,-1,42
 1198 1147 1198 1147 1109 1184 c 128,-1,43
 1020 1221 1020 1221 885 1221 c 0,44,45
 864 1221 864 1221 825.5 1219 c 128,-1,46
 787 1217 787 1217 758.5 1215.5 c 128,-1,47
 730 1214 730 1214 711 1214 c 0,48,49
 657 1214 657 1214 602 1237.5 c 128,-1,50
 547 1261 547 1261 547 1307 c 0,51,52
 547 1328 547 1328 570.5 1360 c 128,-1,53
 594 1392 594 1392 635 1435.5 c 128,-1,54
 676 1479 676 1479 688 1493 c 1,55,-1
 719 1493 l 1,56,57
 700 1463 700 1463 700 1442 c 0,58,59
 700 1394 700 1394 823 1375 c 128,-1,60
 946 1356 946 1356 1036 1356 c 0,61,62
 1086 1356 1086 1356 1154 1340.5 c 128,-1,63
 1222 1325 1222 1325 1285 1296 c 128,-1,64
 1348 1267 1348 1267 1384 1231 c 0,65,66
 1526 1089 1526 1089 1526 817 c 0,67,68
 1526 735 1526 735 1513.5 660 c 128,-1,69
 1501 585 1501 585 1476 507 c 128,-1,70
 1451 429 1451 429 1417.5 360.5 c 128,-1,71
 1384 292 1384 292 1341 227 c 1,72,73
 1307 197 1307 197 1233 139 c 1,74,75
 1363 -12 1363 -12 1450 -12 c 0,76,77
 1520 -12 1520 -12 1602 43 c 1,78,-1
 1602 -12 l 1,79,80
 1564 -36 1564 -36 1483 -77 c 128,-1,81
 1402 -118 1402 -118 1362 -141 c 1,82,83
 1154 -74 1154 -74 1049 20 c 1,84,85
 909 -55 909 -55 797 -55 c 0,86,87
 626 -55 626 -55 469 10 c 0,88,89
 436 23 436 23 398 39 c 128,-1,90
 360 55 360 55 324 65.5 c 128,-1,91
 288 76 288 76 252 76 c 0,92,93
 193 76 193 76 141.5 46.5 c 128,-1,94
 90 17 90 17 55 -35 c 1,0,-1
EndSplineSet
EndChar

StartChar: k
Encoding: 107 107 24
Width: 797
Flags: W
LayerCount: 2
Fore
SplineSet
180 141 m 1,0,1
 195 205 195 205 195 342 c 0,2,3
 195 438 195 438 193 487 c 1,4,5
 193 513 193 513 192 555 c 128,-1,6
 191 597 191 597 190 633 c 1,7,-1
 49 633 l 1,8,-1
 104 700 l 1,9,-1
 190 700 l 1,10,-1
 176 1372 l 1,11,-1
 205 1378 l 1,12,-1
 254 1229 l 1,13,14
 418 1362 418 1362 504 1411 c 1,15,-1
 549 1393 l 1,16,17
 468 1318 468 1318 429.5 1273.5 c 128,-1,18
 391 1229 391 1229 367.5 1166.5 c 128,-1,19
 344 1104 344 1104 344 1018 c 1,20,21
 390 1054 390 1054 456 1096 c 128,-1,22
 522 1138 522 1138 612 1196 c 1,23,24
 735 1080 735 1080 735 987 c 0,25,26
 735 925 735 925 696 887 c 1,27,-1
 520 700 l 1,28,-1
 709 700 l 1,29,-1
 653 633 l 1,30,-1
 362 633 l 1,31,-1
 362 262 l 1,32,33
 459 167 459 167 520 123 c 1,34,-1
 721 221 l 1,35,-1
 741 195 l 1,36,37
 680 141 680 141 597 83 c 128,-1,38
 514 25 514 25 397 -53 c 1,39,-1
 180 141 l 1,0,1
344 700 m 1,40,41
 403 700 403 700 460.5 728.5 c 128,-1,42
 518 757 518 757 554 805.5 c 128,-1,43
 590 854 590 854 590 911 c 0,44,45
 590 981 590 981 494 1059 c 1,46,47
 424 1024 424 1024 391.5 971.5 c 128,-1,48
 359 919 359 919 351.5 859 c 128,-1,49
 344 799 344 799 344 700 c 1,40,41
EndSplineSet
EndChar

StartChar: x
Encoding: 120 120 25
Width: 795
Flags: W
LayerCount: 2
Fore
SplineSet
20 -201 m 0,0,1
 20 -154 20 -154 54.5 -92 c 128,-1,2
 89 -30 89 -30 130.5 22.5 c 128,-1,3
 172 75 172 75 223 133 c 1,4,5
 236 245 236 245 236 393 c 0,6,7
 236 515 236 515 221 723 c 1,8,9
 215 730 215 730 198.5 747 c 128,-1,10
 182 764 182 764 165.5 777.5 c 128,-1,11
 149 791 149 791 139 791 c 0,12,13
 133 791 133 791 115 782 c 2,14,-1
 55 754 l 1,15,-1
 29 772 l 1,16,17
 85 828 85 828 136 874.5 c 128,-1,18
 187 921 187 921 240 967 c 1,19,20
 263 948 263 948 311.5 906 c 128,-1,21
 360 864 360 864 395 834 c 1,22,-1
 393 768 l 1,23,-1
 616 952 l 1,24,25
 684 841 684 841 743 799 c 1,26,-1
 621 694 l 1,27,28
 607 700 607 700 595 713 c 128,-1,29
 583 726 583 726 569.5 745.5 c 128,-1,30
 556 765 556 765 542 778 c 128,-1,31
 528 791 528 791 512 791 c 0,32,33
 495 791 495 791 456 755 c 128,-1,34
 417 719 417 719 399 696 c 1,35,36
 385 634 385 634 385 535 c 256,37,38
 385 436 385 436 397 240 c 1,39,40
 419 218 419 218 447 191 c 128,-1,41
 475 164 475 164 505 142.5 c 128,-1,42
 535 121 535 121 553 121 c 0,43,44
 567 121 567 121 582 131 c 1,45,-1
 729 207 l 1,46,-1
 733 164 l 1,47,-1
 430 -51 l 1,48,49
 367 20 367 20 258 100 c 1,50,51
 200 44 200 44 166.5 -5.5 c 128,-1,52
 133 -55 133 -55 133 -111 c 0,53,54
 133 -195 133 -195 195.5 -232 c 128,-1,55
 258 -269 258 -269 367 -293 c 1,56,-1
 369 -311 l 1,57,-1
 252 -385 l 1,58,59
 20 -326 20 -326 20 -201 c 0,0,1
EndSplineSet
EndChar

StartChar: kalt
Encoding: 166 166 26
Width: 682
Flags: W
LayerCount: 2
Fore
SplineSet
168 123 m 1,0,1
 173 135 173 135 175 261.5 c 128,-1,2
 177 388 177 388 177.5 512.5 c 128,-1,3
 178 637 178 637 178 727 c 1,4,-1
 51 727 l 1,5,-1
 150 799 l 1,6,-1
 188 799 l 1,7,8
 188 991 188 991 184.5 1123 c 128,-1,9
 181 1255 181 1255 168 1360 c 1,10,-1
 195 1372 l 1,11,-1
 248 1223 l 1,12,13
 435 1360 435 1360 512 1407 c 1,14,-1
 547 1391 l 1,15,16
 435 1302 435 1302 391.5 1229.5 c 128,-1,17
 348 1157 348 1157 348 1026 c 1,18,-1
 559 1192 l 1,19,20
 612 1115 612 1115 645 1032 c 1,21,-1
 571 920 l 1,22,23
 554 942 554 942 538 961.5 c 128,-1,24
 522 981 522 981 507 996.5 c 128,-1,25
 492 1012 492 1012 475.5 1024 c 128,-1,26
 459 1036 459 1036 444 1036 c 0,27,28
 402 1036 402 1036 378 994.5 c 128,-1,29
 354 953 354 953 345 896.5 c 128,-1,30
 336 840 336 840 336 799 c 1,31,-1
 571 799 l 1,32,-1
 520 727 l 1,33,-1
 342 727 l 1,34,35
 343 667 343 667 344 596 c 128,-1,36
 345 525 345 525 346 464 c 128,-1,37
 347 403 347 403 347.5 362 c 128,-1,38
 348 321 348 321 348 240 c 1,39,-1
 467 141 l 1,40,41
 477 131 477 131 489 131 c 0,42,43
 496 131 496 131 516 141 c 2,44,-1
 637 203 l 1,45,-1
 639 156 l 1,46,-1
 354 -41 l 1,47,48
 259 58 259 58 168 123 c 1,0,1
EndSplineSet
EndChar

StartChar: two
Encoding: 50 50 27
Width: 1026
Flags: W
LayerCount: 2
Fore
SplineSet
125 2 m 1,0,-1
 121 35 l 1,1,-1
 326 225 l 1,2,3
 454 350 454 350 543.5 466.5 c 128,-1,4
 633 583 633 583 633 682 c 0,5,6
 633 725 633 725 609 764.5 c 128,-1,7
 585 804 585 804 545 827 c 128,-1,8
 505 850 505 850 463 850 c 0,9,10
 402 850 402 850 233 752 c 1,11,-1
 213 786 l 1,12,13
 420 971 420 971 578 971 c 0,14,15
 664 971 664 971 726 909 c 128,-1,16
 788 847 788 847 788 762 c 0,17,18
 788 682 788 682 716 569.5 c 128,-1,19
 644 457 644 457 565.5 368.5 c 128,-1,20
 487 280 487 280 369 160 c 0,21,22
 360 151 360 151 360 147 c 0,23,24
 360 133 360 133 389 133 c 2,25,-1
 973 150 l 1,26,-1
 993 137 l 1,27,-1
 942 2 l 1,28,-1
 125 2 l 1,0,-1
EndSplineSet
EndChar

StartChar: question
Encoding: 63 63 28
Width: 741
Flags: W
LayerCount: 2
Fore
SplineSet
336 -23 m 256,0,1
 288 -23 288 -23 254.5 13 c 128,-1,2
 221 49 221 49 221 96 c 256,3,4
 221 143 221 143 252 177 c 128,-1,5
 283 211 283 211 328 211 c 0,6,7
 375 211 375 211 409.5 181.5 c 128,-1,8
 444 152 444 152 444 104 c 0,9,10
 444 55 444 55 414 16 c 128,-1,11
 384 -23 384 -23 336 -23 c 256,0,1
201 512 m 0,12,13
 201 569 201 569 270 645.5 c 128,-1,14
 339 722 339 722 410 780 c 1,15,16
 490 850 490 850 539 936 c 128,-1,17
 588 1022 588 1022 588 1116 c 0,18,19
 588 1173 588 1173 561.5 1223.5 c 128,-1,20
 535 1274 535 1274 488.5 1305.5 c 128,-1,21
 442 1337 442 1337 387 1337 c 0,22,23
 323 1337 323 1337 272 1303 c 128,-1,24
 221 1269 221 1269 221 1206 c 0,25,26
 221 1131 221 1131 287 1079 c 1,27,-1
 162 1004 l 1,28,29
 94 1055 94 1055 94 1141 c 0,30,31
 94 1204 94 1204 131 1257.5 c 128,-1,32
 168 1311 168 1311 223.5 1346 c 128,-1,33
 279 1381 279 1381 344 1400 c 128,-1,34
 409 1419 409 1419 469 1419 c 0,35,36
 590 1419 590 1419 661.5 1348.5 c 128,-1,37
 733 1278 733 1278 733 1157 c 0,38,39
 733 973 733 973 498 768 c 0,40,41
 416 697 416 697 372 651 c 128,-1,42
 328 605 328 605 328 559 c 0,43,44
 328 526 328 526 346 494 c 128,-1,45
 364 462 364 462 395 444 c 1,46,-1
 301 377 l 1,47,48
 260 394 260 394 230.5 430.5 c 128,-1,49
 201 467 201 467 201 512 c 0,12,13
EndSplineSet
EndChar

StartChar: F
Encoding: 70 70 29
Width: 1251
Flags: W
LayerCount: 2
Fore
SplineSet
211 -16 m 0,0,1
 211 20 211 20 219 98 c 1,2,3
 225 144 225 144 225 190 c 0,4,5
 225 255 225 255 212 293.5 c 128,-1,6
 199 332 199 332 150 332 c 0,7,8
 95 332 95 332 33 293 c 1,9,-1
 23 338 l 1,10,11
 184 449 184 449 291 449 c 0,12,13
 348 449 348 449 371.5 389.5 c 128,-1,14
 395 330 395 330 395 260 c 0,15,16
 395 209 395 209 381 141 c 1,17,18
 365 72 365 72 365 12 c 0,19,20
 365 -84 365 -84 415 -162 c 128,-1,21
 465 -240 465 -240 555 -240 c 0,22,23
 616 -240 616 -240 666 -213 c 128,-1,24
 716 -186 716 -186 753.5 -140 c 128,-1,25
 791 -94 791 -94 810 -37.5 c 128,-1,26
 829 19 829 19 829 76 c 0,27,28
 829 141 829 141 775.5 234.5 c 128,-1,29
 722 328 722 328 645 436 c 0,30,31
 600 499 600 499 567.5 548.5 c 128,-1,32
 535 598 535 598 508 653.5 c 128,-1,33
 481 709 481 709 481 752 c 0,34,35
 481 849 481 849 574.5 942.5 c 128,-1,36
 668 1036 668 1036 786 1112 c 1,37,38
 536 1264 536 1264 403 1264 c 0,39,40
 329 1264 329 1264 277 1215 c 128,-1,41
 225 1166 225 1166 197 1096.5 c 128,-1,42
 169 1027 169 1027 154 948 c 1,43,-1
 121 969 l 1,44,45
 143 1187 143 1187 252 1296 c 128,-1,46
 361 1405 361 1405 524 1405 c 0,47,48
 609 1405 609 1405 721 1353.5 c 128,-1,49
 833 1302 833 1302 948 1231 c 1,50,51
 1025 1188 1025 1188 1079 1188 c 0,52,53
 1118 1188 1118 1188 1155.5 1221.5 c 128,-1,54
 1193 1255 1193 1255 1253 1319 c 1,55,-1
 1253 1264 l 1,56,57
 1080 1024 1080 1024 993 1024 c 0,58,59
 929 1024 929 1024 862 1067 c 1,60,61
 807 1054 807 1054 754 1024 c 128,-1,62
 701 994 701 994 667 950 c 128,-1,63
 633 906 633 906 633 850 c 0,64,65
 633 800 633 800 665.5 739 c 128,-1,66
 698 678 698 678 752 600 c 1,67,-1
 1001 840 l 1,68,69
 1084 759 1084 759 1110 676 c 1,70,-1
 1024 557 l 1,71,72
 976 643 976 643 915 643 c 0,73,74
 881 643 881 643 774 555 c 1,75,76
 991 276 991 276 991 154 c 0,77,78
 991 22 991 22 910 -85 c 128,-1,79
 829 -192 829 -192 702.5 -253.5 c 128,-1,80
 576 -315 576 -315 446 -315 c 0,81,82
 321 -315 321 -315 266 -231 c 128,-1,83
 211 -147 211 -147 211 -16 c 0,0,1
EndSplineSet
EndChar

StartChar: S
Encoding: 83 83 30
Width: 1696
Flags: W
LayerCount: 2
Fore
SplineSet
764 -55 m 0,0,1
 562 -55 562 -55 420.5 33 c 128,-1,2
 279 121 279 121 207 277.5 c 128,-1,3
 135 434 135 434 135 633 c 0,4,5
 135 846 135 846 229 1008 c 128,-1,6
 323 1170 323 1170 487 1272.5 c 128,-1,7
 651 1375 651 1375 862 1417 c 1,8,9
 891 1403 891 1403 962.5 1363.5 c 128,-1,10
 1034 1324 1034 1324 1110 1287.5 c 128,-1,11
 1186 1251 1186 1251 1245 1229.5 c 128,-1,12
 1304 1208 1304 1208 1341 1208 c 0,13,14
 1473 1208 1473 1208 1520 1364 c 1,15,-1
 1548 1339 l 1,16,17
 1527 1262 1527 1262 1485 1206.5 c 128,-1,18
 1443 1151 1443 1151 1383.5 1113 c 128,-1,19
 1324 1075 1324 1075 1243 1044 c 1,20,21
 1176 1051 1176 1051 981 1165 c 0,22,23
 773 1286 773 1286 688 1286 c 0,24,25
 557 1286 557 1286 426 1155 c 0,26,27
 355 1083 355 1083 320 983.5 c 128,-1,28
 285 884 285 884 285 774 c 0,29,30
 285 583 285 583 362 416.5 c 128,-1,31
 439 250 439 250 584.5 151.5 c 128,-1,32
 730 53 730 53 928 53 c 0,33,34
 1051 53 1051 53 1155.5 92 c 128,-1,35
 1260 131 1260 131 1322 215.5 c 128,-1,36
 1384 300 1384 300 1384 428 c 0,37,38
 1384 504 1384 504 1354.5 565 c 128,-1,39
 1325 626 1325 626 1267.5 661 c 128,-1,40
 1210 696 1210 696 1135 696 c 0,41,42
 1068 696 1068 696 905 666 c 1,43,44
 750 633 750 633 666 633 c 0,45,46
 581 633 581 633 525 674 c 128,-1,47
 469 715 469 715 469 795 c 0,48,49
 469 884 469 884 535.5 948.5 c 128,-1,50
 602 1013 602 1013 694 1038 c 1,51,-1
 721 1014 l 1,52,53
 674 1001 674 1001 647.5 961 c 128,-1,54
 621 921 621 921 621 872 c 0,55,56
 621 816 621 816 656.5 784 c 128,-1,57
 692 752 692 752 752 752 c 0,58,59
 810 752 810 752 991 795 c 1,60,61
 1196 838 1196 838 1253 838 c 0,62,63
 1316 838 1316 838 1366.5 820 c 128,-1,64
 1417 802 1417 802 1455.5 765.5 c 128,-1,65
 1494 729 1494 729 1515 679 c 128,-1,66
 1536 629 1536 629 1536 565 c 0,67,68
 1536 410 1536 410 1471 292 c 128,-1,69
 1406 174 1406 174 1298 98 c 128,-1,70
 1190 22 1190 22 1051.5 -16.5 c 128,-1,71
 913 -55 913 -55 764 -55 c 0,0,1
EndSplineSet
EndChar

StartChar: m
Encoding: 109 109 31
Width: 1569
Flags: W
LayerCount: 2
Fore
SplineSet
180 115 m 1,0,1
 193 224 193 224 193 315 c 1,2,3
 192 351 192 351 191.5 387 c 128,-1,4
 191 423 191 423 189 459 c 128,-1,5
 187 495 187 495 186 530 c 0,6,7
 178 674 178 674 178 748 c 1,8,-1
 125 801 l 1,9,-1
 37 752 l 1,10,-1
 14 776 l 1,11,-1
 240 967 l 1,12,-1
 342 860 l 1,13,-1
 342 768 l 1,14,-1
 602 973 l 1,15,16
 740 890 740 890 848 856 c 1,17,-1
 848 776 l 1,18,19
 1007 886 1007 886 1112 971 c 1,20,21
 1288 876 1288 876 1360 854 c 1,22,23
 1355 798 1355 798 1350.5 695 c 128,-1,24
 1346 592 1346 592 1346 504 c 0,25,26
 1346 381 1346 381 1352 258 c 1,27,28
 1398 189 1398 189 1425 162 c 1,29,30
 1491 188 1491 188 1528 213 c 1,31,-1
 1540 178 l 1,32,-1
 1290 -39 l 1,33,34
 1273 -7 1273 -7 1178 123 c 1,35,36
 1210 274 1210 274 1210 442 c 0,37,38
 1210 565 1210 565 1188 700 c 0,39,40
 1183 736 1183 736 1117 759.5 c 128,-1,41
 1051 783 1051 783 983 797 c 1,42,43
 913 763 913 763 848 719 c 1,44,-1
 848 276 l 2,45,46
 848 242 848 242 856 231 c 2,47,-1
 950 96 l 1,48,-1
 774 -53 l 1,49,50
 744 14 744 14 678 94 c 1,51,52
 705 207 705 207 705 373 c 0,53,54
 705 513 705 513 684 711 c 1,55,56
 652 739 652 739 608.5 756 c 128,-1,57
 565 773 565 773 489 795 c 1,58,-1
 342 711 l 1,59,-1
 342 311 l 2,60,61
 342 229 342 229 352 217 c 2,62,-1
 442 98 l 1,63,-1
 272 -45 l 1,64,-1
 180 115 l 1,0,1
EndSplineSet
EndChar

StartChar: z
Encoding: 122 122 32
Width: 799
Flags: W
LayerCount: 2
Fore
SplineSet
-14 -238 m 1,0,1
 113 -6 113 -6 424 301 c 1,2,3
 294 361 294 361 199 369 c 1,4,-1
 199 393 l 1,5,-1
 348 528 l 2,6,7
 383 561 383 561 401.5 587 c 128,-1,8
 420 613 420 613 420 645 c 0,9,10
 420 679 420 679 400.5 713.5 c 128,-1,11
 381 748 381 748 349.5 771.5 c 128,-1,12
 318 795 318 795 285 795 c 0,13,14
 247 795 247 795 207 768 c 128,-1,15
 167 741 167 741 96 686 c 1,16,-1
 74 711 l 1,17,18
 224 861 224 861 373 965 c 1,19,20
 447 929 447 929 514.5 873 c 128,-1,21
 582 817 582 817 582 758 c 0,22,23
 582 720 582 720 551 684 c 2,24,-1
 397 502 l 1,25,26
 536 453 536 453 614 406 c 1,27,28
 643 291 643 291 643 131 c 0,29,30
 643 -19 643 -19 594 -203 c 1,31,-1
 313 -438 l 1,32,33
 247 -438 247 -438 175 -415.5 c 128,-1,34
 103 -393 103 -393 51 -348 c 128,-1,35
 -1 -303 -1 -303 -14 -238 c 1,0,1
147 -150 m 0,36,37
 147 -216 147 -216 225 -265.5 c 128,-1,38
 303 -315 303 -315 375 -315 c 0,39,40
 451 -315 451 -315 471.5 -202 c 128,-1,41
 492 -89 492 -89 492 41 c 0,42,43
 492 168 492 168 457 266 c 1,44,45
 338 166 338 166 242.5 54 c 128,-1,46
 147 -58 147 -58 147 -150 c 0,36,37
EndSplineSet
EndChar

StartChar: ualt
Encoding: 168 168 33
Width: 1024
Flags: W
LayerCount: 2
Fore
SplineSet
119 94 m 1,0,1
 175 146 175 146 191 269 c 128,-1,2
 207 392 207 392 207 541 c 0,3,4
 207 740 207 740 133 807 c 1,5,-1
 49 766 l 1,6,-1
 20 788 l 1,7,-1
 244 973 l 1,8,9
 296 906 296 906 350 862 c 1,10,11
 354 756 354 756 354 539 c 0,12,13
 354 372 354 372 297 209 c 1,14,15
 414 171 414 171 496 119 c 1,16,-1
 690 211 l 1,17,-1
 690 160 l 1,18,19
 559 96 559 96 403 -31 c 0,20,21
 386 -45 386 -45 367 -45 c 0,22,23
 356 -45 356 -45 354 -43 c 0,24,25
 296 5 296 5 233 46 c 128,-1,26
 170 87 170 87 119 94 c 1,0,1
791 -31 m 1,27,28
 746 79 746 79 692 158 c 1,29,-1
 690 211 l 1,30,31
 698 298 698 298 698 455 c 0,32,33
 698 522 698 522 695 662 c 128,-1,34
 692 802 692 802 690 866 c 1,35,-1
 864 961 l 1,36,-1
 879 944 l 1,37,38
 846 748 846 748 846 461 c 0,39,40
 846 356 846 356 860 266 c 0,41,42
 864 242 864 242 885.5 205 c 128,-1,43
 907 168 907 168 926 168 c 0,44,45
 930 168 930 168 936 170 c 128,-1,46
 942 172 942 172 950 174 c 1,47,-1
 1042 211 l 1,48,-1
 1055 180 l 1,49,50
 929 79 929 79 809 -41 c 1,51,-1
 791 -31 l 1,27,28
EndSplineSet
EndChar

StartChar: quoteright
Encoding: 182 182 34
Width: 438
Flags: W
LayerCount: 2
Fore
SplineSet
119 831 m 1,0,1
 168 914 168 914 192.5 966 c 128,-1,2
 217 1018 217 1018 217 1075 c 0,3,4
 217 1115 217 1115 190 1155 c 1,5,-1
 119 1270 l 1,6,7
 100 1296 100 1296 100 1329 c 0,8,9
 100 1364 100 1364 126.5 1390.5 c 128,-1,10
 153 1417 153 1417 186 1417 c 0,11,12
 218 1417 218 1417 252.5 1366.5 c 128,-1,13
 287 1316 287 1316 310.5 1250.5 c 128,-1,14
 334 1185 334 1185 334 1153 c 0,15,16
 334 1096 334 1096 305.5 1038 c 128,-1,17
 277 980 277 980 225.5 910 c 128,-1,18
 174 840 174 840 152 807 c 1,19,-1
 119 831 l 1,0,1
EndSplineSet
EndChar

StartChar: four
Encoding: 52 52 35
Width: 1026
Flags: W
LayerCount: 2
Fore
SplineSet
23 0 m 1,0,-1
 20 47 l 1,1,-1
 612 922 l 1,2,-1
 778 975 l 1,3,-1
 788 969 l 1,4,5
 784 857 784 857 783 801.5 c 128,-1,6
 782 746 782 746 781 661.5 c 128,-1,7
 780 577 780 577 780 465 c 0,8,9
 780 273 780 273 786 82 c 1,10,11
 919 86 919 86 987 92 c 1,12,-1
 969 -2 l 1,13,14
 925 -1 925 -1 888.5 -0.5 c 128,-1,15
 852 0 852 0 793 0 c 1,16,17
 793 -260 793 -260 797 -330 c 1,18,-1
 637 -391 l 1,19,-1
 612 -373 l 1,20,21
 620 -297 620 -297 623.5 -210.5 c 128,-1,22
 627 -124 627 -124 627 0 c 1,23,-1
 23 0 l 1,0,-1
162 86 m 1,24,-1
 627 86 l 1,25,26
 627 238 627 238 626 359.5 c 128,-1,27
 625 481 625 481 621.5 584.5 c 128,-1,28
 618 688 618 688 612 745 c 1,29,-1
 588 745 l 1,30,31
 356 457 356 457 162 86 c 1,24,-1
EndSplineSet
EndChar

StartChar: H
Encoding: 72 72 36
Width: 1475
Flags: W
LayerCount: 2
Fore
SplineSet
23 -33 m 1,0,-1
 2 0 l 1,1,2
 48 55 48 55 85 95 c 128,-1,3
 122 135 122 135 169 171 c 128,-1,4
 216 207 216 207 252 207 c 0,5,6
 326 207 326 207 416 121 c 1,7,8
 492 190 492 190 492 272 c 0,9,10
 492 329 492 329 426 446 c 1,11,12
 376 540 376 540 342.5 606.5 c 128,-1,13
 309 673 309 673 280.5 751.5 c 128,-1,14
 252 830 252 830 252 883 c 0,15,16
 252 964 252 964 319 1055.5 c 128,-1,17
 386 1147 386 1147 479 1227 c 128,-1,18
 572 1307 572 1307 655 1364 c 1,19,20
 778 1241 778 1241 915 1241 c 0,21,22
 939 1241 939 1241 975.5 1263 c 128,-1,23
 1012 1285 1012 1285 1039 1306 c 128,-1,24
 1066 1327 1066 1327 1112 1362 c 1,25,-1
 1112 1319 l 1,26,27
 1017 1224 1017 1224 947 1162 c 128,-1,28
 877 1100 877 1100 829 1100 c 0,29,30
 766 1100 766 1100 698 1125.5 c 128,-1,31
 630 1151 630 1151 535 1198 c 1,32,33
 422 1065 422 1065 422 969 c 0,34,35
 422 916 422 916 447 851.5 c 128,-1,36
 472 787 472 787 524 676 c 1,37,38
 682 838 682 838 895 958 c 1,39,40
 1122 958 1122 958 1266 850 c 1,41,42
 1319 643 1319 643 1319 489 c 0,43,44
 1319 331 1319 331 1301.5 207 c 128,-1,45
 1284 83 1284 83 1233 -33 c 1,46,47
 1116 -142 1116 -142 1032 -207 c 128,-1,48
 948 -272 948 -272 895 -272 c 0,49,50
 807 -272 807 -272 754 -219 c 1,51,-1
 850 -88 l 1,52,53
 866 -120 866 -120 900 -142 c 128,-1,54
 934 -164 934 -164 971 -164 c 0,55,56
 1042 -164 1042 -164 1080 -74.5 c 128,-1,57
 1118 15 1118 15 1130 115 c 1,58,59
 1145 221 1145 221 1145 391 c 0,60,61
 1145 514 1145 514 1124.5 608 c 128,-1,62
 1104 702 1104 702 1041.5 764.5 c 128,-1,63
 979 827 979 827 862 827 c 0,64,65
 771 827 771 827 691.5 756 c 128,-1,66
 612 685 612 685 557 588 c 1,67,68
 614 445 614 445 614 340 c 0,69,70
 614 297 614 297 600 262 c 1,71,72
 421 32 421 32 338 -53 c 1,73,74
 239 66 239 66 164 66 c 0,75,76
 141 66 141 66 107.5 40 c 128,-1,77
 74 14 74 14 23 -33 c 1,0,-1
EndSplineSet
EndChar

StartChar: U
Encoding: 85 85 37
Width: 1321
Flags: W
LayerCount: 2
Fore
SplineSet
-33 -12 m 1,0,-1
 -53 23 l 1,1,-1
 111 207 l 1,2,3
 146 211 146 211 175.5 234.5 c 128,-1,4
 205 258 205 258 252 305 c 0,5,6
 328 381 328 381 328 512 c 0,7,8
 328 569 328 569 299.5 634.5 c 128,-1,9
 271 700 271 700 229 774 c 0,10,11
 179 864 179 864 150 926 c 128,-1,12
 121 988 121 988 121 1034 c 0,13,14
 121 1095 121 1095 176.5 1172 c 128,-1,15
 232 1249 232 1249 310.5 1320.5 c 128,-1,16
 389 1392 389 1392 449 1427 c 1,17,-1
 469 1395 l 1,18,19
 391 1336 391 1336 343 1272.5 c 128,-1,20
 295 1209 295 1209 295 1133 c 0,21,22
 295 1088 295 1088 314 1041 c 128,-1,23
 333 994 333 994 371 915 c 1,24,25
 469 723 469 723 469 600 c 0,26,27
 469 509 469 509 436 446 c 1,28,-1
 240 217 l 1,29,30
 269 217 269 217 300 209.5 c 128,-1,31
 331 202 331 202 365.5 190 c 128,-1,32
 400 178 400 178 436 162 c 1,33,34
 602 96 602 96 643 96 c 0,35,36
 723 96 723 96 807 184 c 0,37,38
 879 258 879 258 903 292.5 c 128,-1,39
 927 327 927 327 932.5 368 c 128,-1,40
 938 409 938 409 938 512 c 0,41,42
 938 709 938 709 932.5 896 c 128,-1,43
 927 1083 927 1083 915 1221 c 1,44,-1
 1178 1405 l 1,45,-1
 1210 1382 l 1,46,47
 1129 1299 1129 1299 1109.5 1203.5 c 128,-1,48
 1090 1108 1090 1108 1090 948 c 2,49,-1
 1090 532 l 2,50,51
 1090 477 1090 477 1105 387.5 c 128,-1,52
 1120 298 1120 298 1153.5 230 c 128,-1,53
 1187 162 1187 162 1241 162 c 0,54,55
 1294 162 1294 162 1362 207 c 1,56,-1
 1362 164 l 1,57,-1
 1069 -55 l 1,58,-1
 938 229 l 1,59,-1
 698 -12 l 1,60,61
 644 -55 644 -55 580 -55 c 0,62,63
 521 -55 521 -55 460 -39 c 128,-1,64
 399 -23 399 -23 317 10 c 0,65,66
 250 38 250 38 188.5 57 c 128,-1,67
 127 76 127 76 78 76 c 0,68,69
 65 76 65 76 48 66 c 128,-1,70
 31 56 31 56 15 40.5 c 128,-1,71
 -1 25 -1 25 -15.5 8 c 128,-1,72
 -30 -9 -30 -9 -33 -12 c 1,0,-1
EndSplineSet
EndChar

StartChar: bracketleft
Encoding: 91 91 38
Width: 567
Flags: W
LayerCount: 2
Fore
SplineSet
240 -266 m 1,0,-1
 240 1516 l 1,1,2
 319 1507 319 1507 569 1507 c 1,3,-1
 569 1456 l 1,4,-1
 326 1432 l 1,5,-1
 326 -190 l 1,6,-1
 569 -205 l 1,7,-1
 569 -244 l 1,8,9
 442 -244 442 -244 240 -266 c 1,0,-1
EndSplineSet
EndChar

StartChar: b
Encoding: 98 98 39
Width: 1051
Flags: W
LayerCount: 2
Fore
SplineSet
178 145 m 1,0,1
 195 235 195 235 200 350 c 128,-1,2
 205 465 205 465 205 629 c 0,3,4
 205 792 205 792 203.5 916.5 c 128,-1,5
 202 1041 202 1041 198 1161 c 128,-1,6
 194 1281 194 1281 190 1366 c 1,7,-1
 225 1374 l 1,8,-1
 260 1219 l 1,9,-1
 276 1227 l 1,10,-1
 522 1403 l 1,11,-1
 557 1378 l 1,12,-1
 496 1325 l 2,13,14
 410 1250 410 1250 385 1140 c 128,-1,15
 360 1030 360 1030 360 877 c 0,16,17
 360 820 360 820 365 748 c 1,18,-1
 375 743 l 1,19,20
 552 893 552 893 662 961 c 1,21,22
 776 893 776 893 901 838 c 1,23,24
 905 710 905 710 905 647 c 0,25,26
 905 397 905 397 866 199 c 1,27,28
 604 29 604 29 401 -63 c 1,29,30
 375 -40 375 -40 331 -1 c 128,-1,31
 287 38 287 38 255.5 67.5 c 128,-1,32
 224 97 224 97 178 145 c 1,0,1
365 252 m 1,33,34
 387 230 387 230 430.5 187 c 128,-1,35
 474 144 474 144 515 115 c 128,-1,36
 556 86 556 86 584 86 c 0,37,38
 636 86 636 86 672.5 140 c 128,-1,39
 709 194 709 194 723 256 c 0,40,41
 743 341 743 341 743 465 c 0,42,43
 743 610 743 610 733 713 c 1,44,45
 690 738 690 738 561 788 c 1,46,47
 437 734 437 734 362 682 c 1,48,-1
 365 252 l 1,33,34
EndSplineSet
EndChar

StartChar: o
Encoding: 111 111 40
Width: 999
Flags: W
LayerCount: 2
Fore
SplineSet
137 139 m 1,0,-1
 137 201 l 2,1,2
 137 459 137 459 172 745 c 1,3,4
 344 840 344 840 532 985 c 1,5,6
 686 881 686 881 834 848 c 1,7,8
 844 718 844 718 844 616 c 0,9,10
 844 392 844 392 801 188 c 1,11,12
 727 142 727 142 684.5 116.5 c 128,-1,13
 642 91 642 91 577.5 56 c 128,-1,14
 513 21 513 21 463 -2.5 c 128,-1,15
 413 -26 413 -26 338 -57 c 1,16,17
 250 21 250 21 213 57 c 128,-1,18
 176 93 176 93 137 139 c 1,0,-1
313 252 m 1,19,20
 364 194 364 194 431.5 141 c 128,-1,21
 499 88 499 88 549 88 c 0,22,23
 561 88 561 88 594 129 c 1,24,25
 631 169 631 169 646.5 220 c 128,-1,26
 662 271 662 271 672 346 c 1,27,28
 688 442 688 442 688 565 c 0,29,30
 688 646 688 646 682 729 c 1,31,32
 641 732 641 732 591 744 c 128,-1,33
 541 756 541 756 498.5 769.5 c 128,-1,34
 456 783 456 783 375 813 c 1,35,36
 326 752 326 752 308.5 669 c 128,-1,37
 291 586 291 586 291 485 c 0,38,39
 291 375 291 375 313 252 c 1,19,20
EndSplineSet
EndChar

StartChar: minus
Encoding: 45 45 41
Width: 1548
Flags: W
LayerCount: 2
Fore
SplineSet
94 483 m 1,0,-1
 127 563 l 1,1,-1
 1446 563 l 1,2,-1
 1417 483 l 1,3,-1
 94 483 l 1,0,-1
EndSplineSet
EndChar

StartChar: parenright
Encoding: 41 41 43
Width: 795
Flags: W
LayerCount: 2
Fore
SplineSet
182 -383 m 1,0,-1
 182 -350 l 1,1,2
 277 -309 277 -309 324 -261.5 c 128,-1,3
 371 -214 371 -214 391.5 -152 c 128,-1,4
 412 -90 412 -90 430 25 c 0,5,6
 446 133 446 133 451.5 258 c 128,-1,7
 457 383 457 383 457 563 c 0,8,9
 457 863 457 863 404.5 1122 c 128,-1,10
 352 1381 352 1381 182 1462 c 1,11,-1
 182 1505 l 1,12,13
 339 1472 339 1472 424 1309.5 c 128,-1,14
 509 1147 509 1147 537 948 c 128,-1,15
 565 749 565 749 565 557 c 0,16,17
 565 414 565 414 556 285.5 c 128,-1,18
 547 157 547 157 524 41 c 0,19,20
 487 -147 487 -147 417 -250 c 128,-1,21
 347 -353 347 -353 182 -383 c 1,0,-1
EndSplineSet
EndChar

StartChar: six
Encoding: 54 54 44
Width: 1026
Flags: W
LayerCount: 2
Fore
SplineSet
483 -27 m 0,0,1
 380 -27 380 -27 304.5 17 c 128,-1,2
 229 61 229 61 182 134 c 128,-1,3
 135 207 135 207 113.5 299.5 c 128,-1,4
 92 392 92 392 92 485 c 0,5,6
 92 581 92 581 109.5 678 c 128,-1,7
 127 775 127 775 162 864.5 c 128,-1,8
 197 954 197 954 247 1033 c 128,-1,9
 297 1112 297 1112 365 1180 c 0,10,11
 619 1434 619 1434 850 1434 c 0,12,13
 877 1434 877 1434 942 1413 c 1,14,-1
 924 1298 l 1,15,-1
 907 1288 l 1,16,17
 853 1313 853 1313 786 1313 c 0,18,19
 617 1313 617 1313 444 1149 c 1,20,21
 268 973 268 973 264 627 c 1,22,-1
 279 625 l 1,23,24
 365 695 365 695 461 733.5 c 128,-1,25
 557 772 557 772 655 772 c 0,26,27
 745 772 745 772 816.5 725 c 128,-1,28
 888 678 888 678 926.5 599.5 c 128,-1,29
 965 521 965 521 965 432 c 0,30,31
 965 314 965 314 895.5 207.5 c 128,-1,32
 826 101 826 101 714.5 37 c 128,-1,33
 603 -27 603 -27 483 -27 c 0,0,1
539 66 m 0,34,35
 623 66 623 66 682.5 102.5 c 128,-1,36
 742 139 742 139 772.5 203.5 c 128,-1,37
 803 268 803 268 803 352 c 0,38,39
 803 430 803 430 766.5 497.5 c 128,-1,40
 730 565 730 565 666 604 c 128,-1,41
 602 643 602 643 524 643 c 0,42,43
 460 643 460 643 397.5 615 c 128,-1,44
 335 587 335 587 272 539 c 1,45,46
 272 382 272 382 338.5 224 c 128,-1,47
 405 66 405 66 539 66 c 0,34,35
EndSplineSet
EndChar

StartChar: J
Encoding: 74 74 45
Width: 1130
Flags: W
LayerCount: 2
Fore
SplineSet
219 -45 m 1,0,1
 217 -21 217 -21 212 20 c 128,-1,2
 207 61 207 61 197 92 c 128,-1,3
 187 123 187 123 166.5 143.5 c 128,-1,4
 146 164 146 164 111 164 c 0,5,6
 56 164 56 164 -8 131 c 1,7,-1
 -20 164 l 1,8,9
 134 295 134 295 240 295 c 0,10,11
 325 295 325 295 348 250 c 128,-1,12
 371 205 371 205 371 109 c 0,13,14
 371 -32 371 -32 407 -114.5 c 128,-1,15
 443 -197 443 -197 567 -197 c 0,16,17
 639 -197 639 -197 689 -159 c 128,-1,18
 739 -121 739 -121 762.5 -58.5 c 128,-1,19
 786 4 786 4 786 76 c 0,20,21
 786 147 786 147 770 231 c 128,-1,22
 754 315 754 315 731 403 c 1,23,24
 674 638 674 638 674 737 c 0,25,26
 674 757 674 757 678 795 c 1,27,28
 738 877 738 877 809.5 950.5 c 128,-1,29
 881 1024 881 1024 961 1090 c 1,30,-1
 993 1067 l 1,31,32
 840 897 840 897 840 784 c 0,33,34
 840 701 840 701 872 545 c 0,35,36
 938 215 938 215 938 174 c 0,37,38
 938 64 938 64 874.5 -43 c 128,-1,39
 811 -150 811 -150 706.5 -217.5 c 128,-1,40
 602 -285 602 -285 492 -285 c 0,41,42
 402 -285 402 -285 346 -261 c 128,-1,43
 290 -237 290 -237 260.5 -185.5 c 128,-1,44
 231 -134 231 -134 219 -45 c 1,0,1
111 1034 m 1,45,46
 143 1115 143 1115 193.5 1199.5 c 128,-1,47
 244 1284 244 1284 313.5 1344.5 c 128,-1,48
 383 1405 383 1405 459 1405 c 0,49,50
 543 1405 543 1405 698 1276 c 1,51,52
 796 1188 796 1188 862 1188 c 0,53,54
 937 1188 937 1188 1069 1253 c 1,55,-1
 1069 1210 l 1,56,57
 816 1081 816 1081 741 1057 c 1,58,59
 673 1068 673 1068 580 1145 c 1,60,61
 468 1231 468 1231 393 1231 c 0,62,63
 320 1231 320 1231 255 1165 c 128,-1,64
 190 1099 190 1099 143 1014 c 1,65,-1
 111 1034 l 1,45,46
EndSplineSet
EndChar

StartChar: W
Encoding: 87 87 46
Width: 2142
Flags: W
LayerCount: 2
Fore
SplineSet
98 -33 m 1,0,-1
 66 10 l 1,1,2
 106 58 106 58 203.5 154 c 128,-1,3
 301 250 301 250 322 250 c 0,4,5
 541 250 541 250 625 422.5 c 128,-1,6
 709 595 709 595 709 840 c 0,7,8
 709 1089 709 1089 610 1188 c 0,9,10
 512 1286 512 1286 403 1286 c 0,11,12
 352 1286 352 1286 306.5 1267 c 128,-1,13
 261 1248 261 1248 234 1210.5 c 128,-1,14
 207 1173 207 1173 207 1122 c 0,15,16
 207 1050 207 1050 295 958 c 0,17,18
 393 855 393 855 393 784 c 0,19,20
 393 733 393 733 354 677 c 128,-1,21
 315 621 315 621 260 576.5 c 128,-1,22
 205 532 205 532 154 512 c 1,23,-1
 111 545 l 1,24,25
 175 578 175 578 208.5 609.5 c 128,-1,26
 242 641 242 641 242 696 c 0,27,28
 242 742 242 742 176 817 c 1,29,30
 121 882 121 882 93.5 925 c 128,-1,31
 66 968 66 968 66 1014 c 0,32,33
 66 1133 66 1133 197 1264 c 0,34,35
 264 1331 264 1331 355.5 1368 c 128,-1,36
 447 1405 447 1405 545 1405 c 0,37,38
 772 1405 772 1405 862 1155 c 1,39,40
 921 1220 921 1220 987.5 1278 c 128,-1,41
 1054 1336 1054 1336 1145 1405 c 1,42,43
 1234 1311 1234 1311 1288 1248.5 c 128,-1,44
 1342 1186 1342 1186 1362 1143 c 1,45,46
 1464 1250 1464 1250 1559.5 1327.5 c 128,-1,47
 1655 1405 1655 1405 1733 1405 c 0,48,49
 1816 1405 1816 1405 1962 1307 c 0,50,51
 2017 1270 2017 1270 2081 1270 c 0,52,53
 2126 1270 2126 1270 2159 1286 c 1,54,-1
 2146 1241 l 1,55,56
 2074 1188 2074 1188 2033.5 1142 c 128,-1,57
 1993 1096 1993 1096 1972.5 1034.5 c 128,-1,58
 1952 973 1952 973 1952 891 c 0,59,60
 1952 827 1952 827 1962 752 c 1,61,62
 1974 646 1974 646 1979.5 573 c 128,-1,63
 1985 500 1985 500 1985 434 c 0,64,65
 1985 258 1985 258 1907 184 c 0,66,67
 1844 124 1844 124 1773.5 69.5 c 128,-1,68
 1703 15 1703 15 1624 -35 c 1,69,70
 1562 -51 1562 -51 1505 -51 c 0,71,72
 1411 -51 1411 -51 1319 -12 c 0,73,74
 1218 31 1218 31 1149 53.5 c 128,-1,75
 1080 76 1080 76 1014 76 c 1,76,77
 860 3 860 3 774 -55 c 1,78,79
 764 -55 764 -55 757.5 -55.5 c 128,-1,80
 751 -56 751 -56 743 -57 c 1,81,82
 610 -57 610 -57 479 20 c 1,83,84
 427 53 427 53 381.5 74.5 c 128,-1,85
 336 96 336 96 305 96 c 0,86,87
 257 96 257 96 207.5 60.5 c 128,-1,88
 158 25 158 25 98 -33 c 1,0,-1
1178 207 m 1,89,90
 1235 207 1235 207 1315 175 c 128,-1,91
 1395 143 1395 143 1516 86 c 1,92,93
 1562 63 1562 63 1624 63 c 0,94,95
 1670 63 1670 63 1711 91.5 c 128,-1,96
 1752 120 1752 120 1776 162 c 0,97,98
 1800 205 1800 205 1806 257.5 c 128,-1,99
 1812 310 1812 310 1812 387 c 0,100,101
 1812 484 1812 484 1798 621 c 0,102,103
 1788 716 1788 716 1788 793 c 0,104,105
 1788 863 1788 863 1796.5 908 c 128,-1,106
 1805 953 1805 953 1821 977.5 c 128,-1,107
 1837 1002 1837 1002 1883.5 1050.5 c 128,-1,108
 1930 1099 1930 1099 1950 1122 c 1,109,110
 1918 1122 1918 1122 1798 1198 c 1,111,112
 1698 1264 1698 1264 1624 1264 c 0,113,114
 1561 1264 1561 1264 1499.5 1201 c 128,-1,115
 1438 1138 1438 1138 1384 1057 c 1,116,117
 1391 967 1391 967 1391 866 c 0,118,119
 1391 788 1391 788 1385.5 710.5 c 128,-1,120
 1380 633 1380 633 1367.5 556 c 128,-1,121
 1355 479 1355 479 1331 401 c 1,122,123
 1292 363 1292 363 1266 328.5 c 128,-1,124
 1240 294 1240 294 1178 207 c 1,89,90
492 217 m 1,125,126
 659 86 659 86 807 86 c 0,127,128
 895 86 895 86 976 124 c 128,-1,129
 1057 162 1057 162 1124 227 c 1,130,131
 1243 348 1243 348 1243 739 c 0,132,133
 1243 808 1243 808 1232 882.5 c 128,-1,134
 1221 957 1221 957 1196.5 1025.5 c 128,-1,135
 1172 1094 1172 1094 1128.5 1149 c 128,-1,136
 1085 1204 1085 1204 1024 1231 c 1,137,138
 927 1144 927 1144 872 1057 c 1,139,140
 872 935 872 935 859.5 819.5 c 128,-1,141
 847 704 847 704 813 590.5 c 128,-1,142
 779 477 779 477 721 391 c 1,143,-1
 492 217 l 1,125,126
EndSplineSet
EndChar

StartChar: bracketright
Encoding: 93 93 47
Width: 567
Flags: W
LayerCount: 2
Fore
SplineSet
-6 -254 m 1,0,-1
 -6 -211 l 1,1,-1
 244 -188 l 1,2,-1
 244 1434 l 1,3,-1
 -6 1450 l 1,4,-1
 -6 1499 l 1,5,6
 52 1499 52 1499 107.5 1499.5 c 128,-1,7
 163 1500 163 1500 220 1502 c 128,-1,8
 277 1504 277 1504 330 1511 c 1,9,-1
 330 -270 l 1,10,11
 203 -254 203 -254 -6 -254 c 1,0,-1
EndSplineSet
EndChar

StartChar: d
Encoding: 100 100 48
Width: 1020
Flags: W
LayerCount: 2
Fore
SplineSet
156 166 m 1,0,1
 152 227 152 227 152 350 c 0,2,3
 152 400 152 400 158 498 c 128,-1,4
 164 596 164 596 164 641 c 0,5,6
 164 649 164 649 161 662 c 128,-1,7
 158 675 158 675 158 674 c 1,8,9
 158 691 158 691 274 789 c 128,-1,10
 390 887 390 887 432 915 c 1,11,-1
 471 907 l 1,12,13
 455 891 455 891 429.5 857 c 128,-1,14
 404 823 404 823 385 803 c 1,15,16
 346 758 346 758 328.5 677 c 128,-1,17
 311 596 311 596 311 518 c 0,18,19
 311 435 311 435 326 276 c 1,20,21
 346 250 346 250 397 209.5 c 128,-1,22
 448 169 448 169 505 133.5 c 128,-1,23
 562 98 562 98 584 98 c 0,24,25
 626 98 626 98 663 220 c 128,-1,26
 700 342 700 342 709 420 c 1,27,28
 715 484 715 484 715 547 c 0,29,30
 715 674 715 674 688 817 c 1,31,32
 397 1118 397 1118 197 1118 c 0,33,34
 154 1118 154 1118 147 1116 c 2,35,-1
 53 1079 l 1,36,-1
 27 1110 l 1,37,38
 133 1171 133 1171 299 1249 c 1,39,40
 561 1176 561 1176 874 930 c 1,41,42
 877 872 877 872 877 760 c 0,43,44
 877 661 877 661 872.5 564.5 c 128,-1,45
 868 468 868 468 853 377.5 c 128,-1,46
 838 287 838 287 807 211 c 1,47,-1
 438 -68 l 1,48,49
 380 -30 380 -30 334.5 3.5 c 128,-1,50
 289 37 289 37 244.5 76.5 c 128,-1,51
 200 116 200 116 156 166 c 1,0,1
EndSplineSet
EndChar

StartChar: q
Encoding: 113 113 49
Width: 1001
Flags: W
LayerCount: 2
Fore
SplineSet
297 -59 m 1,0,-1
 127 133 l 1,1,2
 121 226 121 226 121 317 c 0,3,4
 121 434 121 434 132.5 543 c 128,-1,5
 144 652 144 652 168 756 c 1,6,7
 393 877 393 877 506 967 c 1,8,9
 623 898 623 898 696 885 c 1,10,-1
 838 981 l 1,11,-1
 856 967 l 1,12,13
 828 785 828 785 821.5 568 c 128,-1,14
 815 351 815 351 815 51 c 0,15,16
 815 -65 815 -65 818.5 -163.5 c 128,-1,17
 822 -262 822 -262 831 -367 c 1,18,-1
 678 -449 l 1,19,-1
 637 -414 l 1,20,21
 648 -271 648 -271 652.5 -139.5 c 128,-1,22
 657 -8 657 -8 659 195 c 1,23,24
 611 154 611 154 549.5 109 c 128,-1,25
 488 64 488 64 426 23.5 c 128,-1,26
 364 -17 364 -17 297 -59 c 1,0,-1
297 254 m 1,27,28
 308 243 308 243 352.5 195 c 128,-1,29
 397 147 397 147 428 119 c 1,30,-1
 653 254 l 1,31,32
 652 270 652 270 651.5 300.5 c 128,-1,33
 651 331 651 331 651 350 c 128,-1,34
 651 369 651 369 651 391 c 0,35,36
 651 577 651 577 664 752 c 1,37,38
 530 757 530 757 356 815 c 1,39,40
 312 735 312 735 297.5 634.5 c 128,-1,41
 283 534 283 534 283 410 c 0,42,43
 283 276 283 276 297 254 c 1,27,28
EndSplineSet
EndChar

StartChar: plus
Encoding: 43 43 50
Width: 1548
Flags: W
LayerCount: 2
Fore
SplineSet
731 -170 m 1,0,-1
 731 498 l 1,1,-1
 96 498 l 1,2,-1
 127 578 l 1,3,-1
 731 578 l 1,4,-1
 731 1196 l 1,5,-1
 817 1225 l 1,6,-1
 817 578 l 1,7,-1
 1452 578 l 1,8,-1
 1423 498 l 1,9,-1
 817 498 l 1,10,-1
 817 -129 l 1,11,-1
 731 -170 l 1,0,-1
EndSplineSet
EndChar

StartChar: eight
Encoding: 56 56 51
Width: 1026
Flags: W
LayerCount: 2
Fore
SplineSet
82 322 m 0,0,1
 82 425 82 425 126.5 497.5 c 128,-1,2
 171 570 171 570 230 612 c 128,-1,3
 289 654 289 654 416 729 c 1,4,5
 404 741 404 741 347 794 c 128,-1,6
 290 847 290 847 256 889 c 128,-1,7
 222 931 222 931 202 978.5 c 128,-1,8
 182 1026 182 1026 182 1083 c 0,9,10
 182 1179 182 1179 228.5 1247.5 c 128,-1,11
 275 1316 275 1316 346 1359.5 c 128,-1,12
 417 1403 417 1403 520 1444 c 1,13,14
 618 1444 618 1444 701.5 1415.5 c 128,-1,15
 785 1387 785 1387 838 1323.5 c 128,-1,16
 891 1260 891 1260 891 1161 c 0,17,18
 891 1056 891 1056 812.5 961 c 128,-1,19
 734 866 734 866 623 801 c 1,20,21
 662 774 662 774 729.5 726 c 128,-1,22
 797 678 797 678 841.5 634 c 128,-1,23
 886 590 886 590 915 531.5 c 128,-1,24
 944 473 944 473 944 403 c 0,25,26
 944 309 944 309 903 230 c 128,-1,27
 862 151 862 151 789.5 94.5 c 128,-1,28
 717 38 717 38 628.5 9 c 128,-1,29
 540 -20 540 -20 449 -20 c 0,30,31
 342 -20 342 -20 259 19.5 c 128,-1,32
 176 59 176 59 129 136 c 128,-1,33
 82 213 82 213 82 322 c 0,0,1
559 850 m 1,34,35
 631 900 631 900 674 967 c 128,-1,36
 717 1034 717 1034 717 1112 c 0,37,38
 717 1188 717 1188 684 1239 c 128,-1,39
 651 1290 651 1290 592.5 1314.5 c 128,-1,40
 534 1339 534 1339 459 1339 c 1,41,42
 430 1318 430 1318 402.5 1297 c 128,-1,43
 375 1276 375 1276 363.5 1260.5 c 128,-1,44
 352 1245 352 1245 345 1220 c 128,-1,45
 338 1195 338 1195 338 1149 c 0,46,47
 338 1010 338 1010 559 850 c 1,34,35
500 74 m 0,48,49
 585 74 585 74 644 106 c 128,-1,50
 703 138 703 138 734.5 200 c 128,-1,51
 766 262 766 262 766 344 c 0,52,53
 766 460 766 460 664 559 c 0,54,55
 643 580 643 580 617.5 597 c 128,-1,56
 592 614 592 614 547 640 c 128,-1,57
 502 666 502 666 481 680 c 1,58,59
 363 616 363 616 307.5 547.5 c 128,-1,60
 252 479 252 479 252 362 c 0,61,62
 252 242 252 242 317 158 c 128,-1,63
 382 74 382 74 500 74 c 0,48,49
EndSplineSet
EndChar

StartChar: L
Encoding: 76 76 52
Width: 1364
Flags: W
LayerCount: 2
Fore
SplineSet
98 -45 m 1,0,-1
 66 0 l 1,1,2
 98 77 98 77 134.5 146 c 128,-1,3
 171 215 171 215 219 272 c 1,4,5
 514 316 514 316 514 479 c 0,6,7
 514 508 514 508 489.5 562 c 128,-1,8
 465 616 465 616 426 686 c 0,9,10
 403 727 403 727 380.5 775 c 128,-1,11
 358 823 358 823 343 869.5 c 128,-1,12
 328 916 328 916 328 958 c 0,13,14
 328 1006 328 1006 350.5 1055 c 128,-1,15
 373 1104 373 1104 407.5 1148 c 128,-1,16
 442 1192 442 1192 479 1231 c 1,17,18
 564 1316 564 1316 677.5 1360.5 c 128,-1,19
 791 1405 791 1405 915 1405 c 0,20,21
 1003 1405 1003 1405 1058.5 1383 c 128,-1,22
 1114 1361 1114 1361 1141.5 1309.5 c 128,-1,23
 1169 1258 1169 1258 1169 1171 c 0,24,25
 1169 1148 1169 1148 1165 1100 c 1,26,27
 1155 1008 1155 1008 1155 987 c 0,28,29
 1155 946 1155 946 1187 936 c 128,-1,30
 1219 926 1219 926 1276 926 c 1,31,-1
 1276 883 l 1,32,-1
 1057 827 l 1,33,34
 1009 849 1009 849 991 873.5 c 128,-1,35
 973 898 973 898 973 946 c 0,36,37
 973 985 973 985 981 1047 c 1,38,39
 985 1087 985 1087 985 1112 c 0,40,41
 985 1221 985 1221 936 1264 c 128,-1,42
 887 1307 887 1307 774 1307 c 0,43,44
 705 1307 705 1307 638.5 1277 c 128,-1,45
 572 1247 572 1247 530.5 1192 c 128,-1,46
 489 1137 489 1137 489 1067 c 0,47,48
 489 1028 489 1028 502 979.5 c 128,-1,49
 515 931 515 931 534.5 887 c 128,-1,50
 554 843 554 843 578 795 c 0,51,52
 614 721 614 721 634.5 660.5 c 128,-1,53
 655 600 655 600 655 535 c 2,54,-1
 655 512 l 1,55,56
 598 442 598 442 500 348 c 1,57,-1
 451 299 l 2,58,59
 438 286 438 286 431 278.5 c 128,-1,60
 424 271 424 271 416 262 c 1,61,-1
 446 262 l 1,62,63
 532 227 532 227 614 198 c 128,-1,64
 696 169 696 169 780.5 150 c 128,-1,65
 865 131 865 131 948 131 c 0,66,67
 1049 131 1049 131 1114 159 c 128,-1,68
 1179 187 1179 187 1218 245 c 128,-1,69
 1257 303 1257 303 1286 403 c 1,70,-1
 1319 381 l 1,71,72
 1294 237 1294 237 1260 143 c 0,73,74
 1230 62 1230 62 1196 21.5 c 128,-1,75
 1162 -19 1162 -19 1107.5 -36 c 128,-1,76
 1053 -53 1053 -53 971 -53 c 0,77,78
 850 -53 850 -53 706.5 -7.5 c 128,-1,79
 563 38 563 38 393 109 c 1,80,81
 320 141 320 141 262 141 c 0,82,83
 237 141 237 141 204.5 106.5 c 128,-1,84
 172 72 172 72 145 29 c 128,-1,85
 118 -14 118 -14 98 -45 c 1,0,-1
EndSplineSet
EndChar

StartChar: Y
Encoding: 89 89 53
Width: 1704
Flags: W
LayerCount: 2
Fore
SplineSet
295 250 m 1,0,1
 450 250 450 250 545.5 330 c 128,-1,2
 641 410 641 410 681 538.5 c 128,-1,3
 721 667 721 667 721 817 c 0,4,5
 721 897 721 897 705 978 c 128,-1,6
 689 1059 689 1059 652 1129 c 128,-1,7
 615 1199 615 1199 552.5 1242.5 c 128,-1,8
 490 1286 490 1286 403 1286 c 0,9,10
 358 1286 358 1286 312.5 1269 c 128,-1,11
 267 1252 267 1252 237 1216 c 128,-1,12
 207 1180 207 1180 207 1133 c 0,13,14
 207 1056 207 1056 283 969 c 1,15,16
 393 848 393 848 393 784 c 0,17,18
 393 711 393 711 320 639.5 c 128,-1,19
 247 568 247 568 154 512 c 1,20,-1
 121 545 l 1,21,22
 252 641 252 641 252 709 c 0,23,24
 252 737 252 737 154 850 c 1,25,26
 55 961 55 961 55 1014 c 0,27,28
 55 1125 55 1125 209 1274 c 1,29,30
 340 1405 340 1405 535 1405 c 0,31,32
 686 1405 686 1405 752 1339 c 1,33,34
 883 1211 883 1211 883 991 c 0,35,36
 883 636 883 636 741 424 c 1,37,-1
 512 229 l 1,38,-1
 295 250 l 1,0,1
469 -305 m 1,39,-1
 623 -141 l 1,40,41
 634 -226 634 -226 695 -287 c 128,-1,42
 756 -348 756 -348 840 -348 c 0,43,44
 971 -348 971 -348 1080 -255 c 128,-1,45
 1189 -162 1189 -162 1253 -33 c 0,46,47
 1352 165 1352 165 1352 643 c 0,48,49
 1352 725 1352 725 1347.5 797 c 128,-1,50
 1343 869 1343 869 1331 940 c 128,-1,51
 1319 1011 1319 1011 1298 1077 c 1,52,53
 1198 1193 1198 1193 1112 1231 c 1,54,55
 1030 1180 1030 1180 977.5 1127 c 128,-1,56
 925 1074 925 1074 883 991 c 1,57,-1
 872 1112 l 1,58,59
 1067 1307 1067 1307 1266 1405 c 1,60,61
 1308 1352 1308 1352 1359 1311 c 128,-1,62
 1410 1270 1410 1270 1483 1221 c 1,63,64
 1505 1114 1505 1114 1510.5 994 c 128,-1,65
 1516 874 1516 874 1516 696 c 0,66,67
 1516 481 1516 481 1488 299 c 128,-1,68
 1460 117 1460 117 1384 -33 c 1,69,70
 1338 -103 1338 -103 1263 -178 c 128,-1,71
 1188 -253 1188 -253 1100 -313.5 c 128,-1,72
 1012 -374 1012 -374 919.5 -410 c 128,-1,73
 827 -446 827 -446 741 -446 c 0,74,75
 653 -446 653 -446 576.5 -412.5 c 128,-1,76
 500 -379 500 -379 469 -305 c 1,39,-1
98 -33 m 1,77,-1
 78 10 l 1,78,79
 154 127 154 127 295 250 c 1,80,81
 408 250 408 250 488 234 c 128,-1,82
 568 218 568 218 655 174 c 0,83,84
 713 145 713 145 747 132 c 128,-1,85
 781 119 781 119 817 119 c 0,86,87
 908 119 908 119 991 217 c 1,88,-1
 1010 184 l 1,89,90
 940 90 940 90 877.5 22.5 c 128,-1,91
 815 -45 815 -45 764 -45 c 0,92,93
 700 -45 700 -45 557 20 c 1,94,95
 365 109 365 109 317 109 c 0,96,97
 250 109 250 109 194 70 c 128,-1,98
 138 31 138 31 98 -33 c 1,77,-1
EndSplineSet
EndChar

StartChar: f
Encoding: 102 102 54
Width: 668
Flags: W
LayerCount: 2
Fore
SplineSet
178 -449 m 1,0,-1
 254 -172 l 1,1,2
 264 -74 264 -74 264 6 c 2,3,-1
 264 719 l 1,4,-1
 61 719 l 1,5,-1
 133 791 l 1,6,-1
 264 791 l 1,7,8
 263 798 263 798 243 872 c 128,-1,9
 223 946 223 946 215.5 976.5 c 128,-1,10
 208 1007 208 1007 198 1060 c 128,-1,11
 188 1113 188 1113 188 1137 c 1,12,13
 266 1259 266 1259 395 1395 c 1,14,15
 417 1377 417 1377 442 1361 c 128,-1,16
 467 1345 467 1345 491 1336 c 128,-1,17
 515 1327 515 1327 539 1327 c 0,18,19
 575 1327 575 1327 618 1354 c 1,20,-1
 633 1335 l 1,21,-1
 508 1198 l 1,22,23
 420 1198 420 1198 307 1223 c 1,24,25
 307 1174 307 1174 319 1128.5 c 128,-1,26
 331 1083 331 1083 354 1028 c 0,27,28
 384 954 384 954 400 904.5 c 128,-1,29
 416 855 416 855 416 803 c 1,30,-1
 664 791 l 1,31,-1
 604 719 l 1,32,-1
 416 719 l 1,33,-1
 416 84 l 2,34,35
 416 -51 416 -51 387 -141 c 1,36,-1
 227 -451 l 1,37,38
 227 -451 227 -451 178 -449 c 1,0,-1
EndSplineSet
EndChar

StartChar: s
Encoding: 115 115 55
Width: 905
Flags: W
LayerCount: 2
Fore
SplineSet
-18 20 m 1,0,-1
 -37 47 l 1,1,2
 -19 67 -19 67 -2.5 84 c 128,-1,3
 14 101 14 101 33 121 c 1,4,-1
 94 180 l 2,5,6
 144 227 144 227 231 227 c 0,7,8
 309 227 309 227 379 182 c 1,9,-1
 545 72 l 1,10,11
 549 68 549 68 559 68 c 0,12,13
 576 68 576 68 586.5 112 c 128,-1,14
 597 156 597 156 601.5 210 c 128,-1,15
 606 264 606 264 606 287 c 0,16,17
 606 408 606 408 582 432 c 0,18,19
 537 477 537 477 512 477 c 0,20,21
 466 477 466 477 430 457 c 2,22,-1
 221 342 l 1,23,24
 188 381 188 381 141 469 c 1,25,-1
 141 526 l 1,26,-1
 141 621 l 2,27,28
 141 721 141 721 143 770 c 1,29,-1
 457 979 l 1,30,31
 467 972 467 972 528.5 935.5 c 128,-1,32
 590 899 590 899 614 874 c 0,33,34
 631 856 631 856 674 856 c 0,35,36
 704 856 704 856 738.5 877.5 c 128,-1,37
 773 899 773 899 825 942 c 1,38,-1
 834 901 l 1,39,-1
 645 741 l 1,40,41
 565 747 565 747 491 766.5 c 128,-1,42
 417 786 417 786 319 825 c 1,43,44
 303 801 303 801 298 768.5 c 128,-1,45
 293 736 293 736 293 688 c 0,46,47
 293 636 293 636 307.5 566 c 128,-1,48
 322 496 322 496 358 496 c 0,49,50
 383 496 383 496 393 500 c 2,51,-1
 645 614 l 1,52,53
 689 597 689 597 760 537 c 1,54,55
 766 456 766 456 766 375 c 0,56,57
 766 222 766 222 733 102 c 1,58,59
 532 17 532 17 406 -61 c 1,60,61
 235 96 235 96 143 96 c 0,62,63
 69 96 69 96 -18 20 c 1,0,-1
EndSplineSet
EndChar

StartChar: dadv
Encoding: 161 161 56
Width: 1018
Flags: W
LayerCount: 2
Fore
SplineSet
158 168 m 1,0,1
 154 290 154 290 154 356 c 0,2,3
 154 553 154 553 178 709 c 1,4,-1
 381 870 l 1,5,6
 265 916 265 916 209.5 956.5 c 128,-1,7
 154 997 154 997 154 1081 c 0,8,9
 154 1170 154 1170 198.5 1250 c 128,-1,10
 243 1330 243 1330 315 1399 c 1,11,-1
 340 1380 l 1,12,13
 279 1310 279 1310 279 1221 c 0,14,15
 279 1120 279 1120 383 1051.5 c 128,-1,16
 487 983 487 983 617.5 949 c 128,-1,17
 748 915 748 915 874 897 c 1,18,19
 881 828 881 828 881 745 c 0,20,21
 881 608 881 608 862.5 469.5 c 128,-1,22
 844 331 844 331 805 203 c 1,23,-1
 444 -68 l 1,24,25
 276 47 276 47 158 168 c 1,0,1
328 260 m 1,26,27
 430 170 430 170 506 129 c 1,28,29
 548 104 548 104 571 104 c 0,30,31
 627 104 627 104 658.5 207.5 c 128,-1,32
 690 311 690 311 700.5 437 c 128,-1,33
 711 563 711 563 711 635 c 0,34,35
 711 670 711 670 700 760 c 1,36,-1
 424 856 l 1,37,38
 319 734 319 734 319 461 c 0,39,40
 319 446 319 446 317.5 419.5 c 128,-1,41
 316 393 316 393 314.5 366 c 128,-1,42
 313 339 313 339 313 324 c 0,43,44
 313 276 313 276 328 260 c 1,26,27
EndSplineSet
EndChar

StartChar: colon
Encoding: 58 58 58
Width: 442
Flags: W
LayerCount: 2
Fore
SplineSet
207 -25 m 0,0,1
 164 -25 164 -25 136.5 8.5 c 128,-1,2
 109 42 109 42 109 84 c 0,3,4
 109 132 109 132 134.5 173.5 c 128,-1,5
 160 215 160 215 207 215 c 0,6,7
 243 215 243 215 275 197.5 c 128,-1,8
 307 180 307 180 325.5 149.5 c 128,-1,9
 344 119 344 119 344 84 c 0,10,11
 344 34 344 34 301.5 4.5 c 128,-1,12
 259 -25 259 -25 207 -25 c 0,0,1
207 700 m 0,13,14
 162 700 162 700 131 735.5 c 128,-1,15
 100 771 100 771 100 815 c 0,16,17
 100 844 100 844 114 872.5 c 128,-1,18
 128 901 128 901 152.5 918.5 c 128,-1,19
 177 936 177 936 207 936 c 0,20,21
 258 936 258 936 298 902 c 128,-1,22
 338 868 338 868 338 815 c 0,23,24
 338 765 338 765 297.5 732.5 c 128,-1,25
 257 700 257 700 207 700 c 0,13,14
EndSplineSet
EndChar

StartChar: A
Encoding: 65 65 59
Width: 1468
Flags: W
LayerCount: 2
Fore
SplineSet
98 76 m 1,0,-1
 66 98 l 1,1,2
 227 222 227 222 293 272 c 1,3,4
 372 330 372 330 440.5 387 c 128,-1,5
 509 444 509 444 571 504 c 1,6,7
 642 575 642 575 681 633.5 c 128,-1,8
 720 692 720 692 737 759.5 c 128,-1,9
 754 827 754 827 754 926 c 0,10,11
 754 1026 754 1026 709 1111 c 128,-1,12
 664 1196 664 1196 584.5 1246 c 128,-1,13
 505 1296 505 1296 406 1296 c 0,14,15
 352 1296 352 1296 298.5 1269.5 c 128,-1,16
 245 1243 245 1243 210.5 1198 c 128,-1,17
 176 1153 176 1153 176 1100 c 0,18,19
 176 1071 176 1071 198 1042.5 c 128,-1,20
 220 1014 220 1014 262 969 c 1,21,22
 371 860 371 860 371 795 c 0,23,24
 371 713 371 713 298.5 641.5 c 128,-1,25
 226 570 226 570 131 522 c 1,26,-1
 98 545 l 1,27,28
 229 620 229 620 229 709 c 0,29,30
 229 752 229 752 143 838 c 1,31,32
 96 888 96 888 70.5 934.5 c 128,-1,33
 45 981 45 981 45 1034 c 0,34,35
 45 1134 45 1134 154 1241 c 1,36,37
 233 1322 233 1322 337 1363.5 c 128,-1,38
 441 1405 441 1405 557 1405 c 0,39,40
 667 1405 667 1405 748 1365 c 128,-1,41
 829 1325 829 1325 872 1246.5 c 128,-1,42
 915 1168 915 1168 915 1057 c 0,43,44
 915 989 915 989 904 918 c 128,-1,45
 893 847 893 847 871.5 782.5 c 128,-1,46
 850 718 850 718 817 653 c 1,47,-1
 469 315 l 1,48,49
 545 315 545 315 631 229 c 2,50,-1
 729 131 l 1,51,-1
 1024 315 l 1,52,-1
 1024 969 l 2,53,54
 1024 1084 1024 1084 1014 1231 c 1,55,-1
 1276 1427 l 1,56,-1
 1309 1405 l 1,57,58
 1279 1378 1279 1378 1256 1357 c 128,-1,59
 1233 1336 1233 1336 1217.5 1312 c 128,-1,60
 1202 1288 1202 1288 1198 1253 c 0,61,62
 1193 1196 1193 1196 1190.5 1071 c 128,-1,63
 1188 946 1188 946 1188 774 c 0,64,65
 1188 712 1188 712 1191.5 604 c 128,-1,66
 1195 496 1195 496 1198 403 c 1,67,68
 1198 364 1198 364 1241.5 260 c 128,-1,69
 1285 156 1285 156 1315 156 c 0,70,71
 1325 156 1325 156 1341 164 c 0,72,73
 1373 178 1373 178 1393 185.5 c 128,-1,74
 1413 193 1413 193 1440 207 c 1,75,-1
 1450 174 l 1,76,-1
 1155 -55 l 1,77,-1
 1024 250 l 1,78,-1
 610 -55 l 1,79,80
 477 164 477 164 338 164 c 0,81,82
 281 164 281 164 223.5 141 c 128,-1,83
 166 118 166 118 98 76 c 1,0,-1
EndSplineSet
EndChar

StartChar: N
Encoding: 78 78 60
Width: 1704
Flags: W
LayerCount: 2
Fore
SplineSet
262 53 m 1,0,-1
 393 217 l 1,1,2
 408 159 408 159 444.5 122.5 c 128,-1,3
 481 86 481 86 535 86 c 0,4,5
 612 86 612 86 667 152 c 128,-1,6
 722 218 722 218 741 303 c 1,7,8
 764 400 764 400 764 545 c 0,9,10
 764 769 764 769 715 940 c 0,11,12
 691 1026 691 1026 648 1104 c 128,-1,13
 605 1182 605 1182 540.5 1234 c 128,-1,14
 476 1286 476 1286 393 1286 c 0,15,16
 348 1286 348 1286 302.5 1265.5 c 128,-1,17
 257 1245 257 1245 227 1207 c 128,-1,18
 197 1169 197 1169 197 1122 c 0,19,20
 197 1084 197 1084 220 1047 c 128,-1,21
 243 1010 243 1010 285 958 c 1,22,23
 393 831 393 831 393 784 c 0,24,25
 393 736 393 736 369 695.5 c 128,-1,26
 345 655 345 655 310.5 624.5 c 128,-1,27
 276 594 276 594 245.5 574.5 c 128,-1,28
 215 555 215 555 143 512 c 1,29,-1
 111 545 l 1,30,31
 229 610 229 610 229 686 c 0,32,33
 229 733 229 733 143 838 c 0,34,35
 100 892 100 892 77.5 931 c 128,-1,36
 55 970 55 970 55 1014 c 0,37,38
 55 1132 55 1132 197 1274 c 0,39,40
 260 1337 260 1337 338 1371 c 128,-1,41
 416 1405 416 1405 502 1405 c 0,42,43
 638 1405 638 1405 734.5 1321 c 128,-1,44
 831 1237 831 1237 872 1100 c 1,45,-1
 985 1257 l 1,46,47
 1040 1324 1040 1324 1115 1364.5 c 128,-1,48
 1190 1405 1190 1405 1276 1405 c 0,49,50
 1377 1405 1377 1405 1419.5 1376.5 c 128,-1,51
 1462 1348 1462 1348 1493 1253 c 1,52,53
 1502 1221 1502 1221 1512.5 1195 c 128,-1,54
 1523 1169 1523 1169 1541.5 1151 c 128,-1,55
 1560 1133 1560 1133 1591 1133 c 0,56,57
 1636 1133 1636 1133 1677 1155 c 1,58,-1
 1677 1122 l 1,59,60
 1635 1091 1635 1091 1586.5 1056 c 128,-1,61
 1538 1021 1538 1021 1502 987 c 128,-1,62
 1466 953 1466 953 1460 926 c 0,63,64
 1427 762 1427 762 1427 563 c 0,65,66
 1427 503 1427 503 1440 400 c 128,-1,67
 1453 297 1453 297 1484.5 216 c 128,-1,68
 1516 135 1516 135 1569 135 c 0,69,70
 1621 135 1621 135 1690 190 c 1,71,-1
 1690 147 l 1,72,73
 1673 130 1673 130 1417 -51 c 1,74,75
 1403 -27 1403 -27 1370 25.5 c 128,-1,76
 1337 78 1337 78 1309.5 127 c 128,-1,77
 1282 176 1282 176 1282 184 c 0,78,79
 1282 191 1282 191 1284 203 c 128,-1,80
 1286 215 1286 215 1286 221 c 0,81,82
 1286 295 1286 295 1281 410 c 128,-1,83
 1276 525 1276 525 1276 553 c 0,84,85
 1276 669 1276 669 1280 719 c 128,-1,86
 1284 769 1284 769 1299 805.5 c 128,-1,87
 1314 842 1314 842 1336.5 870 c 128,-1,88
 1359 898 1359 898 1450 1001 c 1,89,90
 1395 1001 1395 1001 1384 1012 c 0,91,92
 1362 1034 1362 1034 1329 1155 c 0,93,94
 1316 1205 1316 1205 1281.5 1245.5 c 128,-1,95
 1247 1286 1247 1286 1200 1286 c 0,96,97
 1126 1286 1126 1286 1068 1239.5 c 128,-1,98
 1010 1193 1010 1193 967.5 1123.5 c 128,-1,99
 925 1054 925 1054 893 981 c 1,100,101
 915 843 915 843 915 719 c 0,102,103
 915 577 915 577 898 464 c 128,-1,104
 881 351 881 351 829 250 c 0,105,106
 822 236 822 236 814.5 220.5 c 128,-1,107
 807 205 807 205 797 195 c 1,108,109
 705 119 705 119 637 67 c 128,-1,110
 569 15 569 15 512 -23 c 1,111,112
 476 -45 476 -45 436 -45 c 0,113,114
 387 -45 387 -45 341.5 -18 c 128,-1,115
 296 9 296 9 262 53 c 1,0,-1
EndSplineSet
EndChar

StartChar: h
Encoding: 104 104 61
Width: 1067
Flags: W
LayerCount: 2
Fore
SplineSet
463 -377 m 1,0,-1
 598 -264 l 1,1,2
 682 -196 682 -196 704.5 -10 c 128,-1,3
 727 176 727 176 727 395 c 0,4,5
 727 450 727 450 707 723 c 1,6,7
 607 799 607 799 526 799 c 0,8,9
 489 799 489 799 336 696 c 1,10,-1
 336 248 l 1,11,12
 348 224 348 224 382 176.5 c 128,-1,13
 416 129 416 129 436 100 c 1,14,-1
 268 -53 l 1,15,16
 245 -9 245 -9 207.5 53.5 c 128,-1,17
 170 116 170 116 156 133 c 1,18,19
 180 505 180 505 180 874 c 0,20,21
 180 1145 180 1145 166 1380 c 1,22,-1
 190 1386 l 1,23,-1
 240 1229 l 1,24,-1
 487 1411 l 1,25,-1
 522 1386 l 1,26,27
 440 1315 440 1315 388 1222 c 128,-1,28
 336 1129 336 1129 336 1030 c 2,29,-1
 336 760 l 1,30,31
 401 811 401 811 639 979 c 1,32,33
 724 900 724 900 877 854 c 1,34,35
 889 620 889 620 889 504 c 0,36,37
 889 379 889 379 886 293 c 128,-1,38
 883 207 883 207 871 111 c 128,-1,39
 859 15 859 15 836 -63 c 1,40,41
 788 -127 788 -127 737.5 -185 c 128,-1,42
 687 -243 687 -243 629 -304 c 128,-1,43
 571 -365 571 -365 514 -422 c 1,44,-1
 463 -377 l 1,0,-1
EndSplineSet
EndChar

StartChar: u
Encoding: 117 117 62
Width: 1059
Flags: W
LayerCount: 2
Fore
SplineSet
113 98 m 1,0,1
 205 194 205 194 205 541 c 0,2,3
 205 737 205 737 127 811 c 1,4,-1
 47 770 l 1,5,-1
 16 791 l 1,6,-1
 244 971 l 1,7,8
 306 895 306 895 350 862 c 1,9,-1
 350 719 l 2,10,11
 350 549 350 549 340.5 433 c 128,-1,12
 331 317 331 317 299 211 c 1,13,-1
 500 117 l 1,14,-1
 686 219 l 1,15,16
 694 359 694 359 694 528 c 0,17,18
 694 700 694 700 688 868 c 1,19,-1
 860 958 l 1,20,-1
 874 944 l 1,21,22
 842 660 842 660 842 459 c 0,23,24
 842 170 842 170 930 170 c 0,25,26
 949 170 949 170 1038 211 c 1,27,-1
 1051 180 l 1,28,29
 998 138 998 138 927.5 76 c 128,-1,30
 857 14 857 14 803 -37 c 1,31,-1
 786 -33 l 1,32,33
 747 70 747 70 682 160 c 1,34,35
 502 68 502 68 406 -29 c 1,36,37
 386 -47 386 -47 375 -47 c 256,38,39
 364 -47 364 -47 348 -35 c 0,40,41
 282 16 282 16 229 49.5 c 128,-1,42
 176 83 176 83 113 98 c 1,0,1
EndSplineSet
EndChar

StartChar: fnos
Encoding: 163 163 63
Width: 682
Flags: W
LayerCount: 2
Fore
SplineSet
186 -438 m 1,0,1
 238 -303 238 -303 256 -192.5 c 128,-1,2
 274 -82 274 -82 274 74 c 0,3,4
 274 204 274 204 265 423.5 c 128,-1,5
 256 643 256 643 256 725 c 1,6,-1
 59 725 l 1,7,-1
 121 788 l 1,8,-1
 252 788 l 1,9,10
 236 974 236 974 236 1065 c 0,11,12
 236 1130 236 1130 270.5 1208 c 128,-1,13
 305 1286 305 1286 361 1339.5 c 128,-1,14
 417 1393 417 1393 481 1393 c 0,15,16
 542 1393 542 1393 621 1333 c 0,17,18
 633 1325 633 1325 639 1325 c 0,19,20
 646 1325 646 1325 655 1331 c 128,-1,21
 664 1337 664 1337 674 1346 c 128,-1,22
 684 1355 684 1355 690 1360 c 1,23,-1
 694 1329 l 1,24,-1
 549 1159 l 1,25,26
 487 1229 487 1229 422 1229 c 0,27,28
 372 1229 372 1229 333.5 1194.5 c 128,-1,29
 295 1160 295 1160 295 1112 c 0,30,31
 295 1045 295 1045 330 972 c 128,-1,32
 365 899 365 899 432 788 c 1,33,-1
 666 788 l 1,34,-1
 610 725 l 1,35,-1
 438 725 l 1,36,37
 438 532 438 532 435.5 401.5 c 128,-1,38
 433 271 433 271 423 132 c 128,-1,39
 413 -7 413 -7 393 -143 c 1,40,-1
 236 -442 l 1,41,-1
 186 -438 l 1,0,1
EndSplineSet
EndChar

StartChar: quotedbl
Encoding: 125 125 64
Width: 438
Flags: W
LayerCount: 2
Fore
SplineSet
68 885 m 1,0,-1
 27 1196 l 2,1,2
 16 1273 16 1273 16 1346 c 0,3,4
 16 1423 16 1423 88 1423 c 0,5,6
 113 1423 113 1423 134.5 1412.5 c 128,-1,7
 156 1402 156 1402 156 1380 c 2,8,-1
 156 1276 l 1,9,-1
 113 885 l 1,10,-1
 68 885 l 1,0,-1
317 885 m 1,11,-1
 272 1278 l 1,12,13
 262 1350 262 1350 262 1366 c 0,14,15
 262 1417 262 1417 342 1417 c 0,16,17
 365 1417 365 1417 383 1407.5 c 128,-1,18
 401 1398 401 1398 401 1376 c 0,19,20
 401 1311 401 1311 399 1282 c 2,21,-1
 360 885 l 1,22,-1
 317 885 l 1,11,-1
EndSplineSet
EndChar

StartChar: slash
Encoding: 47 47 65
Width: 1026
Flags: W
LayerCount: 2
Fore
SplineSet
70 -373 m 1,0,-1
 874 1479 l 1,1,-1
 954 1460 l 1,2,-1
 158 -373 l 1,3,-1
 70 -373 l 1,0,-1
EndSplineSet
EndChar

StartChar: C
Encoding: 67 67 66
Width: 1253
Flags: W
LayerCount: 2
Fore
SplineSet
463 496 m 1,0,-1
 436 528 l 1,1,2
 519 546 519 546 590 614 c 1,3,4
 623 649 623 649 623 756 c 0,5,6
 623 781 623 781 618 810.5 c 128,-1,7
 613 840 613 840 608 861 c 128,-1,8
 603 882 603 882 596 910 c 128,-1,9
 589 938 589 938 580 971 c 1,10,11
 559 1034 559 1034 559 1092 c 0,12,13
 559 1128 559 1128 567 1155 c 1,14,15
 466 1155 466 1155 403.5 1091.5 c 128,-1,16
 341 1028 341 1028 313 932.5 c 128,-1,17
 285 837 285 837 285 741 c 0,18,19
 285 546 285 546 359 400 c 128,-1,20
 433 254 433 254 574 174 c 128,-1,21
 715 94 715 94 911 94 c 0,22,23
 937 94 937 94 993 98 c 1,24,-1
 1233 217 l 1,25,-1
 1233 164 l 1,26,27
 1183 133 1183 133 1118.5 91 c 128,-1,28
 1054 49 1054 49 1019.5 26 c 128,-1,29
 985 3 985 3 938 -33 c 1,30,31
 862 -49 862 -49 766 -49 c 0,32,33
 607 -49 607 -49 485.5 2 c 128,-1,34
 364 53 364 53 283 146.5 c 128,-1,35
 202 240 202 240 161.5 368 c 128,-1,36
 121 496 121 496 121 653 c 0,37,38
 121 846 121 846 209 1024 c 1,39,40
 292 1088 292 1088 375.5 1139.5 c 128,-1,41
 459 1191 459 1191 547 1231 c 1,42,-1
 610 1198 l 1,43,44
 767 1306 767 1306 1036 1403 c 1,45,46
 1058 1337 1058 1337 1087 1257.5 c 128,-1,47
 1116 1178 1116 1178 1153 1178 c 0,48,49
 1170 1178 1170 1178 1243 1198 c 1,50,-1
 1243 1155 l 1,51,52
 1109 1092 1109 1092 1016 1079 c 1,53,54
 995 1092 995 1092 974 1113.5 c 128,-1,55
 953 1135 953 1135 930 1166.5 c 128,-1,56
 907 1198 907 1198 886 1233 c 128,-1,57
 865 1268 865 1268 852 1286 c 1,58,59
 803 1270 803 1270 783.5 1234 c 128,-1,60
 764 1198 764 1198 764 1143 c 0,61,62
 764 1110 764 1110 774.5 1058 c 128,-1,63
 785 1006 785 1006 794.5 968 c 128,-1,64
 804 930 804 930 811.5 895 c 128,-1,65
 819 860 819 860 819 819 c 0,66,67
 819 548 819 548 463 496 c 1,0,-1
EndSplineSet
EndChar

StartChar: P
Encoding: 80 80 67
Width: 1694
Flags: W
LayerCount: 2
Fore
SplineSet
262 -33 m 1,0,-1
 240 10 l 1,1,2
 285 98 285 98 328 162.5 c 128,-1,3
 371 227 371 227 435 271 c 128,-1,4
 499 315 499 315 578 315 c 0,5,6
 619 315 619 315 678 299 c 1,7,-1
 678 840 l 2,8,9
 678 918 678 918 663 999 c 128,-1,10
 648 1080 648 1080 613.5 1147.5 c 128,-1,11
 579 1215 579 1215 520 1255.5 c 128,-1,12
 461 1296 461 1296 373 1296 c 0,13,14
 300 1296 300 1296 243 1245 c 128,-1,15
 186 1194 186 1194 186 1122 c 0,16,17
 186 1104 186 1104 199 1077 c 128,-1,18
 212 1050 212 1050 226 1030.5 c 128,-1,19
 240 1011 240 1011 272 969 c 1,20,21
 381 833 381 833 381 795 c 0,22,23
 381 709 381 709 309.5 634 c 128,-1,24
 238 559 238 559 143 512 c 1,25,-1
 98 532 l 1,26,27
 229 620 229 620 229 696 c 0,28,29
 229 729 229 729 143 840 c 1,30,31
 55 947 55 947 55 1014 c 0,32,33
 55 1087 55 1087 95 1159.5 c 128,-1,34
 135 1232 135 1232 201.5 1291 c 128,-1,35
 268 1350 268 1350 345 1383.5 c 128,-1,36
 422 1417 422 1417 492 1417 c 0,37,38
 773 1417 773 1417 829 1122 c 1,39,40
 923 1247 923 1247 1049.5 1332 c 128,-1,41
 1176 1417 1176 1417 1309 1417 c 0,42,43
 1400 1417 1400 1417 1430.5 1356.5 c 128,-1,44
 1461 1296 1461 1296 1473 1188 c 1,45,46
 1480 1135 1480 1135 1497.5 1110 c 128,-1,47
 1515 1085 1515 1085 1563 1085 c 0,48,49
 1591 1085 1591 1085 1636 1100 c 1,50,-1
 1647 1067 l 1,51,52
 1568 1029 1568 1029 1476 951.5 c 128,-1,53
 1384 874 1384 874 1384 817 c 0,54,55
 1384 791 1384 791 1395.5 759 c 128,-1,56
 1407 727 1407 727 1423.5 698.5 c 128,-1,57
 1440 670 1440 670 1460 641 c 0,58,59
 1536 528 1536 528 1536 434 c 0,60,61
 1536 335 1536 335 1480 227 c 128,-1,62
 1424 119 1424 119 1333.5 48 c 128,-1,63
 1243 -23 1243 -23 1145 -23 c 0,64,65
 1115 -23 1115 -23 1059.5 -5 c 128,-1,66
 1004 13 1004 13 929.5 42 c 128,-1,67
 855 71 855 71 840 76 c 1,68,69
 840 -130 840 -130 862 -305 c 1,70,71
 838 -323 838 -323 782.5 -363 c 128,-1,72
 727 -403 727 -403 668 -449 c 1,73,-1
 623 -426 l 1,74,75
 650 -374 650 -374 664 -187.5 c 128,-1,76
 678 -1 678 -1 678 129 c 1,77,78
 603 149 603 149 571 156.5 c 128,-1,79
 539 164 539 164 512 164 c 0,80,81
 472 164 472 164 437 146 c 128,-1,82
 402 128 402 128 371.5 99 c 128,-1,83
 341 70 341 70 312 32 c 128,-1,84
 283 -6 283 -6 262 -33 c 1,0,-1
840 250 m 1,85,86
 882 236 882 236 974 204 c 128,-1,87
 1066 172 1066 172 1140 151.5 c 128,-1,88
 1214 131 1214 131 1253 131 c 0,89,90
 1296 131 1296 131 1337.5 152.5 c 128,-1,91
 1379 174 1379 174 1403 210.5 c 128,-1,92
 1427 247 1427 247 1427 293 c 0,93,94
 1427 343 1427 343 1399.5 399 c 128,-1,95
 1372 455 1372 455 1331 512 c 1,96,97
 1233 640 1233 640 1233 707 c 0,98,99
 1233 768 1233 768 1286 830.5 c 128,-1,100
 1339 893 1339 893 1407 946 c 1,101,102
 1395 948 1395 948 1382 956 c 128,-1,103
 1369 964 1369 964 1355.5 977 c 128,-1,104
 1342 990 1342 990 1331 1001 c 0,105,106
 1302 1031 1302 1031 1298 1133 c 1,107,108
 1298 1215 1298 1215 1270.5 1255.5 c 128,-1,109
 1243 1296 1243 1296 1167 1296 c 0,110,111
 1103 1296 1103 1296 1039.5 1246.5 c 128,-1,112
 976 1197 976 1197 923.5 1126 c 128,-1,113
 871 1055 871 1055 840 991 c 1,114,-1
 840 250 l 1,85,86
EndSplineSet
EndChar

StartChar: j
Encoding: 106 106 68
Width: 573
Flags: W
LayerCount: 2
Fore
SplineSet
-18 -377 m 1,0,1
 80 -302 80 -302 132 -252 c 128,-1,2
 184 -202 184 -202 205 -135 c 1,3,4
 219 -95 219 -95 226.5 -33.5 c 128,-1,5
 234 28 234 28 237.5 104 c 128,-1,6
 241 180 241 180 241.5 249.5 c 128,-1,7
 242 319 242 319 242 416 c 0,8,9
 242 659 242 659 221 721 c 0,10,11
 214 741 214 741 191.5 770 c 128,-1,12
 169 799 169 799 154 799 c 1,13,-1
 80 752 l 1,14,-1
 51 776 l 1,15,-1
 266 973 l 1,16,17
 318 921 318 921 399 864 c 1,18,19
 401 766 401 766 401 571 c 0,20,21
 401 259 401 259 389 53 c 1,22,23
 381 -49 381 -49 344 -90 c 2,24,-1
 39 -426 l 1,25,-1
 -18 -377 l 1,0,1
256 1135 m 1,26,27
 217 1169 217 1169 145 1262 c 1,28,-1
 270 1378 l 1,29,30
 319 1310 319 1310 375 1257 c 1,31,-1
 256 1135 l 1,26,27
EndSplineSet
EndChar

StartChar: w
Encoding: 119 119 69
Width: 1583
Flags: W
LayerCount: 2
Fore
SplineSet
160 106 m 1,0,1
 180 237 180 237 180 424 c 0,2,3
 180 525 180 525 176.5 626 c 128,-1,4
 173 727 173 727 158 752 c 1,5,6
 146 767 146 767 134.5 782.5 c 128,-1,7
 123 798 123 798 114 812 c 128,-1,8
 105 826 105 826 98.5 842.5 c 128,-1,9
 92 859 92 859 92 872 c 0,10,11
 92 900 92 900 152.5 974.5 c 128,-1,12
 213 1049 213 1049 254 1090 c 1,13,-1
 281 1083 l 1,14,15
 248 1029 248 1029 248 987 c 0,16,17
 248 955 248 955 277 913.5 c 128,-1,18
 306 872 306 872 342 836 c 1,19,-1
 344 770 l 1,20,21
 501 879 501 879 596 969 c 1,22,23
 653 930 653 930 710.5 900.5 c 128,-1,24
 768 871 768 871 858 829 c 1,25,-1
 856 754 l 1,26,-1
 1147 965 l 1,27,28
 1282 882 1282 882 1403 829 c 1,29,30
 1409 747 1409 747 1409 664 c 0,31,32
 1409 365 1409 365 1333 147 c 1,33,-1
 950 -57 l 1,34,35
 814 28 814 28 676 94 c 1,36,37
 694 308 694 308 694 453 c 0,38,39
 694 575 694 575 682 698 c 1,40,41
 641 728 641 728 586.5 762.5 c 128,-1,42
 532 797 532 797 502 797 c 0,43,44
 484 797 484 797 465 786 c 0,45,46
 423 762 423 762 391.5 744 c 128,-1,47
 360 726 360 726 340 713 c 1,48,49
 336 643 336 643 336 324 c 0,50,51
 336 212 336 212 434 98 c 1,52,-1
 281 -55 l 1,53,54
 219 49 219 49 160 106 c 1,0,1
903 193 m 1,55,56
 947 149 947 149 1007 119.5 c 128,-1,57
 1067 90 1067 90 1122 90 c 0,58,59
 1190 90 1190 90 1223 260 c 1,60,61
 1239 365 1239 365 1239 541 c 0,62,63
 1239 597 1239 597 1223 713 c 1,64,65
 1150 759 1150 759 1032 788 c 1,66,-1
 856 700 l 1,67,68
 854 629 854 629 854 485 c 0,69,70
 854 383 854 383 862 310.5 c 128,-1,71
 870 238 870 238 903 193 c 1,55,56
EndSplineSet
EndChar

StartChar: galt
Encoding: 165 165 70
Width: 1030
Flags: W
LayerCount: 2
Fore
SplineSet
104 -293 m 1,0,-1
 184 -98 l 1,1,-1
 205 -96 l 1,2,3
 223 -164 223 -164 270.5 -211 c 128,-1,4
 318 -258 318 -258 384.5 -282.5 c 128,-1,5
 451 -307 451 -307 520 -307 c 0,6,7
 576 -307 576 -307 628 -283 c 128,-1,8
 680 -259 680 -259 711.5 -216 c 128,-1,9
 743 -173 743 -173 743 -115 c 0,10,11
 743 -44 743 -44 694 201 c 1,12,-1
 326 -63 l 1,13,-1
 158 133 l 1,14,15
 152 244 152 244 152 358 c 0,16,17
 152 445 152 445 154 500 c 128,-1,18
 156 555 156 555 163.5 620.5 c 128,-1,19
 171 686 171 686 184 748 c 1,20,21
 433 923 433 923 512 965 c 1,22,23
 598 910 598 910 750 864 c 1,24,-1
 909 952 l 1,25,-1
 920 932 l 1,26,27
 884 858 884 858 871 760.5 c 128,-1,28
 858 663 858 663 858 547 c 1,29,-1
 854 276 l 1,30,31
 874 144 874 144 885.5 64.5 c 128,-1,32
 897 -15 897 -15 897 -37 c 0,33,34
 897 -72 897 -72 881 -109 c 1,35,-1
 625 -393 l 1,36,37
 561 -438 561 -438 461 -438 c 0,38,39
 396 -438 396 -438 331 -421 c 128,-1,40
 266 -404 266 -404 210 -373 c 128,-1,41
 154 -342 154 -342 104 -293 c 1,0,-1
330 250 m 1,42,43
 393 174 393 174 457 121 c 1,44,-1
 698 260 l 1,45,-1
 711 727 l 1,46,47
 654 731 654 731 597.5 741 c 128,-1,48
 541 751 541 751 484 766.5 c 128,-1,49
 427 782 427 782 367 803 c 1,50,51
 336 735 336 735 329 655.5 c 128,-1,52
 322 576 322 576 322 463 c 0,53,54
 322 388 322 388 330 250 c 1,42,43
EndSplineSet
EndChar

StartChar: one
Encoding: 49 49 71
Width: 1026
Flags: W
LayerCount: 2
Fore
SplineSet
96 -4 m 1,0,-1
 96 88 l 1,1,-1
 389 88 l 2,2,3
 430 88 430 88 430 139 c 1,4,5
 434 176 434 176 434 530 c 0,6,7
 434 739 434 739 420 799 c 0,8,9
 408 848 408 848 353 862.5 c 128,-1,10
 298 877 298 877 211 885 c 1,11,-1
 211 940 l 1,12,13
 300 940 300 940 360 942 c 128,-1,14
 420 944 420 944 493.5 948.5 c 128,-1,15
 567 953 567 953 612 958 c 1,16,-1
 633 942 l 1,17,18
 608 756 608 756 608 469 c 0,19,20
 608 304 608 304 614 137 c 1,21,22
 614 105 614 105 642 96.5 c 128,-1,23
 670 88 670 88 717 88 c 0,24,25
 828 88 828 88 942 94 c 1,26,-1
 940 -2 l 1,27,28
 693 12 693 12 516 12 c 0,29,30
 413 12 413 12 307 6.5 c 128,-1,31
 201 1 201 1 96 -4 c 1,0,-1
EndSplineSet
EndChar

StartChar: E
Encoding: 69 69 72
Width: 1356
Flags: W
LayerCount: 2
Fore
SplineSet
512 453 m 1,0,-1
 479 485 l 1,1,2
 551 495 551 495 643 561 c 1,3,4
 678 594 678 594 678 690 c 0,5,6
 678 802 678 802 633 971 c 0,7,8
 614 1045 614 1045 614 1092 c 0,9,10
 614 1129 614 1129 623 1155 c 1,11,12
 523 1155 523 1155 459 1091.5 c 128,-1,13
 395 1028 395 1028 366.5 932.5 c 128,-1,14
 338 837 338 837 338 741 c 0,15,16
 338 599 338 599 379.5 479.5 c 128,-1,17
 421 360 421 360 504 272.5 c 128,-1,18
 587 185 587 185 703 139.5 c 128,-1,19
 819 94 819 94 967 94 c 0,20,21
 993 94 993 94 1047 98 c 1,22,-1
 1286 217 l 1,23,-1
 1286 164 l 1,24,25
 1156 81 1156 81 1105.5 47.5 c 128,-1,26
 1055 14 1055 14 993 -33 c 1,27,28
 917 -49 917 -49 821 -49 c 0,29,30
 661 -49 661 -49 540.5 2 c 128,-1,31
 420 53 420 53 338.5 147 c 128,-1,32
 257 241 257 241 216.5 369 c 128,-1,33
 176 497 176 497 176 653 c 0,34,35
 176 844 176 844 262 1024 c 1,36,37
 316 1065 316 1065 370 1101.5 c 128,-1,38
 424 1138 424 1138 482 1171 c 128,-1,39
 540 1204 540 1204 600 1231 c 1,40,-1
 666 1198 l 1,41,42
 757 1261 757 1261 863.5 1311 c 128,-1,43
 970 1361 970 1361 1092 1403 c 1,44,45
 1101 1377 1101 1377 1116.5 1329 c 128,-1,46
 1132 1281 1132 1281 1149 1239 c 1,47,48
 1170 1178 1170 1178 1208 1178 c 0,49,50
 1228 1178 1228 1178 1298 1198 c 1,51,-1
 1298 1155 l 1,52,53
 1168 1093 1168 1093 1069 1079 c 1,54,55
 1046 1093 1046 1093 1024 1116.5 c 128,-1,56
 1002 1140 1002 1140 981 1169 c 128,-1,57
 960 1198 960 1198 939 1233 c 128,-1,58
 918 1268 918 1268 905 1286 c 1,59,60
 855 1270 855 1270 835 1234.5 c 128,-1,61
 815 1199 815 1199 815 1145 c 0,62,63
 815 1101 815 1101 829 1036 c 0,64,65
 872 828 872 828 872 756 c 1,66,-1
 1079 885 l 1,67,68
 1155 781 1155 781 1253 723 c 1,69,-1
 1102 637 l 1,70,71
 1081 649 1081 649 1048.5 674.5 c 128,-1,72
 1016 700 1016 700 990.5 716.5 c 128,-1,73
 965 733 965 733 948 733 c 0,74,75
 905 733 905 733 872 700 c 1,76,77
 843 586 843 586 744 529 c 128,-1,78
 645 472 645 472 512 453 c 1,0,-1
EndSplineSet
EndChar

StartChar: R
Encoding: 82 82 73
Width: 1696
Flags: W
LayerCount: 2
Fore
SplineSet
88 -33 m 1,0,-1
 55 0 l 1,1,2
 116 81 116 81 189.5 149 c 128,-1,3
 263 217 263 217 328 217 c 0,4,5
 377 217 377 217 481 96 c 1,6,7
 563 145 563 145 614.5 218 c 128,-1,8
 666 291 666 291 688 374 c 128,-1,9
 710 457 710 457 715.5 541.5 c 128,-1,10
 721 626 721 626 721 752 c 0,11,12
 721 903 721 903 686 1012 c 1,13,14
 670 1067 670 1067 642.5 1114.5 c 128,-1,15
 615 1162 615 1162 577.5 1200.5 c 128,-1,16
 540 1239 540 1239 488.5 1262.5 c 128,-1,17
 437 1286 437 1286 383 1286 c 0,18,19
 336 1286 336 1286 290 1265 c 128,-1,20
 244 1244 244 1244 215 1206 c 128,-1,21
 186 1168 186 1168 186 1122 c 0,22,23
 186 1057 186 1057 285 948 c 1,24,25
 381 836 381 836 381 774 c 0,26,27
 381 697 381 697 314.5 628.5 c 128,-1,28
 248 560 248 560 154 500 c 1,29,-1
 111 532 l 1,30,31
 163 563 163 563 196 604 c 128,-1,32
 229 645 229 645 229 696 c 0,33,34
 229 721 229 721 143 838 c 1,35,36
 55 953 55 953 55 1001 c 0,37,38
 55 1079 55 1079 96 1151 c 128,-1,39
 137 1223 137 1223 207.5 1281.5 c 128,-1,40
 278 1340 278 1340 358.5 1372.5 c 128,-1,41
 439 1405 439 1405 514 1405 c 0,42,43
 594 1405 594 1405 665 1368 c 128,-1,44
 736 1331 736 1331 787.5 1267.5 c 128,-1,45
 839 1204 839 1204 866 1126 c 1,46,-1
 872 1145 l 1,47,48
 976 1267 976 1267 1072 1336 c 128,-1,49
 1168 1405 1168 1405 1286 1405 c 0,50,51
 1371 1405 1371 1405 1405 1353 c 128,-1,52
 1439 1301 1439 1301 1450 1208 c 0,53,54
 1452 1193 1452 1193 1456 1154 c 128,-1,55
 1460 1115 1460 1115 1469.5 1094.5 c 128,-1,56
 1479 1074 1479 1074 1500 1062.5 c 128,-1,57
 1521 1051 1521 1051 1561 1051 c 0,58,59
 1594 1051 1594 1051 1624 1057 c 1,60,-1
 1647 1024 l 1,61,62
 1425 941 1425 941 1243 795 c 1,63,64
 1337 795 1337 795 1427 719 c 1,65,66
 1429 681 1429 681 1432 624 c 128,-1,67
 1435 567 1435 567 1439.5 494.5 c 128,-1,68
 1444 422 1444 422 1449 378.5 c 128,-1,69
 1454 335 1454 335 1460 315 c 0,70,71
 1515 141 1515 141 1569 141 c 0,72,73
 1583 141 1583 141 1688 184 c 1,74,-1
 1688 152 l 1,75,-1
 1417 -55 l 1,76,-1
 1286 184 l 1,77,78
 1288 231 1288 231 1290 285 c 128,-1,79
 1292 339 1292 339 1292 371 c 0,80,81
 1292 484 1292 484 1281 548 c 128,-1,82
 1270 612 1270 612 1221 654 c 128,-1,83
 1172 696 1172 696 1069 696 c 0,84,85
 1005 696 1005 696 883 664 c 1,86,-1
 879 668 l 1,87,88
 863 544 863 544 828 432.5 c 128,-1,89
 793 321 793 321 731 227 c 1,90,91
 655 165 655 165 608.5 126 c 128,-1,92
 562 87 562 87 514 46.5 c 128,-1,93
 466 6 466 6 393 -55 c 1,94,95
 343 -5 343 -5 306.5 24 c 128,-1,96
 270 53 270 53 242 53 c 0,97,98
 156 53 156 53 88 -33 c 1,0,-1
885 719 m 1,99,-1
 1079 795 l 1,100,101
 1380 944 1380 944 1384 948 c 1,102,103
 1346 954 1346 954 1326 968 c 128,-1,104
 1306 982 1306 982 1297 1006 c 128,-1,105
 1288 1030 1288 1030 1283.5 1066.5 c 128,-1,106
 1279 1103 1279 1103 1276 1122 c 0,107,108
 1252 1286 1252 1286 1155 1286 c 0,109,110
 1096 1286 1096 1286 1047.5 1243.5 c 128,-1,111
 999 1201 999 1201 963 1141 c 128,-1,112
 927 1081 927 1081 895 1014 c 1,113,-1
 891 1008 l 1,114,115
 895 954 895 954 895 926 c 0,116,117
 895 805 895 805 885 719 c 1,99,-1
EndSplineSet
EndChar

StartChar: l
Encoding: 108 108 74
Width: 571
Flags: W
LayerCount: 2
Fore
SplineSet
303 -41 m 1,0,-1
 201 115 l 1,1,2
 219 446 219 446 219 776 c 0,3,4
 219 1050 219 1050 203 1362 c 1,5,-1
 231 1376 l 1,6,-1
 281 1221 l 1,7,8
 462 1354 462 1354 541 1403 c 1,9,-1
 567 1380 l 1,10,11
 479 1306 479 1306 432.5 1239.5 c 128,-1,12
 386 1173 386 1173 368 1093.5 c 128,-1,13
 350 1014 350 1014 350 899 c 0,14,15
 350 822 350 822 352 756 c 128,-1,16
 354 690 354 690 358 599.5 c 128,-1,17
 362 509 362 509 364.5 430 c 128,-1,18
 367 351 367 351 367 272 c 2,19,-1
 367 240 l 1,20,21
 374 228 374 228 389 212 c 128,-1,22
 404 196 404 196 421 181.5 c 128,-1,23
 438 167 438 167 453 154 c 1,24,-1
 547 205 l 1,25,-1
 559 172 l 1,26,-1
 303 -41 l 1,0,-1
EndSplineSet
EndChar

StartChar: y
Encoding: 121 121 75
Width: 1020
Flags: W
LayerCount: 2
Fore
SplineSet
377 -412 m 1,0,1
 489 -359 489 -359 558 -295 c 128,-1,2
 627 -231 627 -231 666 -123 c 1,3,4
 688 -58 688 -58 699.5 27.5 c 128,-1,5
 711 113 711 113 714 196 c 128,-1,6
 717 279 717 279 717 387 c 0,7,8
 717 556 717 556 694 729 c 1,9,10
 621 775 621 775 537 801 c 1,11,12
 421 751 421 751 334 686 c 1,13,-1
 334 227 l 1,14,15
 334 227 334 227 442 92 c 1,16,-1
 268 -53 l 1,17,18
 213 39 213 39 152 119 c 1,19,20
 173 205 173 205 177.5 294 c 128,-1,21
 182 383 182 383 182 520 c 0,22,23
 182 578 182 578 178 696 c 1,24,-1
 168 719 l 1,25,26
 119 789 119 789 92 838 c 1,27,28
 134 944 134 944 231 1081 c 1,29,-1
 264 1073 l 1,30,31
 238 1025 238 1025 238 985 c 0,32,33
 238 956 238 956 259.5 923.5 c 128,-1,34
 281 891 281 891 334 825 c 1,35,-1
 334 745 l 1,36,-1
 637 969 l 1,37,38
 773 885 773 885 872 846 c 1,39,40
 883 549 883 549 883 438 c 0,41,42
 883 325 883 325 878 225 c 128,-1,43
 873 125 873 125 851.5 24.5 c 128,-1,44
 830 -76 830 -76 784 -125 c 1,45,-1
 453 -449 l 1,46,-1
 377 -412 l 1,0,1
EndSplineSet
EndChar

StartChar: talt
Encoding: 167 167 76
Width: 684
Flags: W
LayerCount: 2
Fore
SplineSet
238 123 m 1,0,1
 240 143 240 143 242.5 238.5 c 128,-1,2
 245 334 245 334 245.5 472 c 128,-1,3
 246 610 246 610 246 723 c 1,4,-1
 59 723 l 1,5,-1
 133 801 l 1,6,-1
 242 801 l 1,7,8
 242 995 242 995 238 1092 c 1,9,-1
 406 1184 l 1,10,-1
 426 1174 l 1,11,12
 419 1133 419 1133 413 1067 c 128,-1,13
 407 1001 407 1001 405 943 c 128,-1,14
 403 885 403 885 403 803 c 1,15,-1
 657 803 l 1,16,-1
 602 723 l 1,17,-1
 408 723 l 1,18,19
 408 584 408 584 409 417 c 128,-1,20
 410 250 410 250 410 252 c 1,21,22
 541 137 541 137 565 137 c 0,23,24
 576 137 576 137 588 143 c 2,25,-1
 700 207 l 1,26,-1
 711 172 l 1,27,-1
 432 -43 l 1,28,-1
 238 123 l 1,0,1
EndSplineSet
EndChar

StartChar: ampersand
Encoding: 38 38 77
Width: 1509
Flags: W
LayerCount: 2
Fore
SplineSet
100 399 m 0,0,1
 100 499 100 499 143.5 573 c 128,-1,2
 187 647 187 647 251.5 697 c 128,-1,3
 316 747 316 747 426 813 c 1,4,5
 371 958 371 958 371 1065 c 0,6,7
 371 1162 371 1162 412.5 1245.5 c 128,-1,8
 454 1329 454 1329 530 1379.5 c 128,-1,9
 606 1430 606 1430 705 1430 c 0,10,11
 755 1430 755 1430 804 1406 c 128,-1,12
 853 1382 853 1382 883 1339 c 128,-1,13
 913 1296 913 1296 913 1241 c 0,14,15
 913 1150 913 1150 868 1077 c 128,-1,16
 823 1004 823 1004 760 955 c 128,-1,17
 697 906 697 906 594 842 c 1,18,19
 588 836 588 836 578 831 c 1,20,21
 646 678 646 678 742 539.5 c 128,-1,22
 838 401 838 401 961 274 c 1,23,24
 1044 399 1044 399 1044 545 c 0,25,26
 1044 636 1044 636 973 707 c 0,27,28
 940 739 940 739 850 739 c 0,29,30
 787 739 787 739 709 729 c 1,31,-1
 713 817 l 1,32,33
 827 811 827 811 1120 811 c 0,34,35
 1380 811 1380 811 1440 817 c 1,36,-1
 1434 719 l 1,37,38
 1381 727 1381 727 1309 729 c 128,-1,39
 1237 731 1237 731 1133 731 c 1,40,41
 1151 657 1151 657 1151 602 c 0,42,43
 1151 432 1151 432 1001 233 c 1,44,45
 1058 178 1058 178 1111 143.5 c 128,-1,46
 1164 109 1164 109 1221 109 c 0,47,48
 1291 109 1291 109 1340 151 c 128,-1,49
 1389 193 1389 193 1416.5 257 c 128,-1,50
 1444 321 1444 321 1456 391 c 1,51,-1
 1503 377 l 1,52,53
 1472 207 1472 207 1391.5 91 c 128,-1,54
 1311 -25 1311 -25 1159 -25 c 0,55,56
 1023 -25 1023 -25 889 100 c 1,57,58
 807 44 807 44 728 13 c 128,-1,59
 649 -18 649 -18 567 -18 c 0,60,61
 363 -18 363 -18 231.5 91 c 128,-1,62
 100 200 100 200 100 399 c 0,0,1
600 66 m 0,63,64
 716 66 716 66 840 152 c 1,65,66
 771 227 771 227 697 330.5 c 128,-1,67
 623 434 623 434 560 541 c 128,-1,68
 497 648 497 648 451 752 c 1,69,70
 382 708 382 708 342 669.5 c 128,-1,71
 302 631 302 631 281 577.5 c 128,-1,72
 260 524 260 524 260 444 c 0,73,74
 260 295 260 295 357 180.5 c 128,-1,75
 454 66 454 66 600 66 c 0,63,64
553 891 m 1,76,77
 638 944 638 944 677 976 c 128,-1,78
 716 1008 716 1008 741 1059.5 c 128,-1,79
 766 1111 766 1111 766 1192 c 0,80,81
 766 1227 766 1227 749.5 1259 c 128,-1,82
 733 1291 733 1291 703 1312 c 128,-1,83
 673 1333 673 1333 639 1333 c 0,84,85
 563 1333 563 1333 529.5 1278.5 c 128,-1,86
 496 1224 496 1224 496 1143 c 0,87,88
 496 1029 496 1029 553 891 c 1,76,77
EndSplineSet
EndChar

StartChar: three
Encoding: 51 51 78
Width: 1026
Flags: W
LayerCount: 2
Fore
SplineSet
78 -289 m 1,0,-1
 111 -233 l 1,1,2
 182 -268 182 -268 237.5 -286.5 c 128,-1,3
 293 -305 293 -305 348 -305 c 0,4,5
 507 -305 507 -305 599.5 -203 c 128,-1,6
 692 -101 692 -101 692 59 c 0,7,8
 692 232 692 232 596 291 c 128,-1,9
 500 350 500 350 319 350 c 0,10,11
 300 350 300 350 287.5 349.5 c 128,-1,12
 275 349 275 349 260 348 c 1,13,-1
 260 418 l 1,14,15
 334 418 334 418 421 446 c 128,-1,16
 508 474 508 474 567.5 530.5 c 128,-1,17
 627 587 627 587 627 666 c 0,18,19
 627 755 627 755 571.5 809.5 c 128,-1,20
 516 864 516 864 428 864 c 0,21,22
 362 864 362 864 262 786 c 1,23,-1
 219 815 l 1,24,25
 298 885 298 885 378 928 c 128,-1,26
 458 971 458 971 543 971 c 0,27,28
 650 971 650 971 719 914.5 c 128,-1,29
 788 858 788 858 788 754 c 0,30,31
 788 646 788 646 712 560.5 c 128,-1,32
 636 475 636 475 524 430 c 1,33,-1
 530 412 l 1,34,35
 607 412 607 412 670.5 390 c 128,-1,36
 734 368 734 368 781.5 327 c 128,-1,37
 829 286 829 286 855 225.5 c 128,-1,38
 881 165 881 165 881 86 c 0,39,40
 881 -12 881 -12 838.5 -98.5 c 128,-1,41
 796 -185 796 -185 724 -245.5 c 128,-1,42
 652 -306 652 -306 559 -339.5 c 128,-1,43
 466 -373 466 -373 371 -373 c 0,44,45
 226 -373 226 -373 78 -289 c 1,0,-1
EndSplineSet
EndChar

StartChar: G
Encoding: 71 71 79
Width: 1608
Flags: W
LayerCount: 2
Fore
SplineSet
754 -55 m 0,0,1
 455 -55 455 -55 294 146.5 c 128,-1,2
 133 348 133 348 133 653 c 0,3,4
 133 769 133 769 154 865 c 128,-1,5
 175 961 175 961 231 1034 c 1,6,-1
 557 1231 l 1,7,-1
 610 1198 l 1,8,-1
 850 1352 l 1,9,-1
 872 1329 l 1,10,11
 764 1237 764 1237 764 1145 c 0,12,13
 764 1052 764 1052 807 860 c 1,14,15
 988 969 988 969 1122 1100 c 1,16,17
 981 1166 981 1166 926 1286 c 1,18,-1
 1069 1415 l 1,19,20
 1104 1344 1104 1344 1158 1292.5 c 128,-1,21
 1212 1241 1212 1241 1276 1241 c 0,22,23
 1319 1241 1319 1241 1352 1274 c 1,24,-1
 1362 1231 l 1,25,-1
 1014 928 l 1,26,27
 1038 930 1038 930 1087 930 c 0,28,29
 1268 930 1268 930 1341 856 c 1,30,31
 1391 808 1391 808 1422.5 747 c 128,-1,32
 1454 686 1454 686 1454 621 c 0,33,34
 1454 503 1454 503 1403 392.5 c 128,-1,35
 1352 282 1352 282 1266 197 c 1,36,37
 1017 32 1017 32 948 -23 c 1,38,39
 859 -55 859 -55 754 -55 c 0,0,1
469 260 m 0,40,41
 521 208 521 208 584.5 168.5 c 128,-1,42
 648 129 648 129 719 107.5 c 128,-1,43
 790 86 790 86 862 86 c 0,44,45
 984 86 984 86 1078 144.5 c 128,-1,46
 1172 203 1172 203 1224 302 c 128,-1,47
 1276 401 1276 401 1276 522 c 0,48,49
 1276 596 1276 596 1248.5 651 c 128,-1,50
 1221 706 1221 706 1171.5 744 c 128,-1,51
 1122 782 1122 782 1060 800.5 c 128,-1,52
 998 819 998 819 928 819 c 0,53,54
 873 819 873 819 817 807 c 1,55,56
 819 788 819 788 819 756 c 0,57,58
 819 652 819 652 775.5 587 c 128,-1,59
 732 522 732 522 658.5 488 c 128,-1,60
 585 454 585 454 479 436 c 1,61,-1
 446 467 l 1,62,63
 534 491 534 491 580.5 552 c 128,-1,64
 627 613 627 613 627 700 c 0,65,66
 627 746 627 746 620.5 787.5 c 128,-1,67
 614 829 614 829 600 893 c 1,68,69
 575 991 575 991 575 1063 c 0,70,71
 575 1117 575 1117 590 1165 c 1,72,73
 429 1129 429 1129 362 1026 c 128,-1,74
 295 923 295 923 295 752 c 0,75,76
 295 606 295 606 336.5 479 c 128,-1,77
 378 352 378 352 469 260 c 0,40,41
EndSplineSet
EndChar

StartChar: T
Encoding: 84 84 80
Width: 1370
Flags: W
LayerCount: 2
Fore
SplineSet
207 10 m 1,0,1
 322 128 322 128 459 240 c 1,2,-1
 520 240 l 2,3,4
 596 240 596 240 633 238 c 1,5,6
 693 274 693 274 739.5 324.5 c 128,-1,7
 786 375 786 375 786 432 c 0,8,9
 786 490 786 490 688 604 c 0,10,11
 616 688 616 688 579.5 738 c 128,-1,12
 543 788 543 788 535 831 c 1,13,14
 558 934 558 934 624.5 1030 c 128,-1,15
 691 1126 691 1126 786 1221 c 1,16,17
 630 1274 630 1274 459 1274 c 0,18,19
 390 1274 390 1274 318.5 1251 c 128,-1,20
 247 1228 247 1228 200.5 1179.5 c 128,-1,21
 154 1131 154 1131 154 1057 c 0,22,23
 154 1001 154 1001 191.5 953 c 128,-1,24
 229 905 229 905 285 883 c 1,25,-1
 154 752 l 1,26,27
 68 818 68 818 68 969 c 0,28,29
 68 1050 68 1050 107 1125.5 c 128,-1,30
 146 1201 146 1201 209 1264 c 0,31,32
 280 1334 280 1334 376 1369.5 c 128,-1,33
 472 1405 472 1405 580 1405 c 0,34,35
 660 1405 660 1405 738 1394.5 c 128,-1,36
 816 1384 816 1384 928 1362 c 0,37,38
 1089 1329 1089 1329 1167 1329 c 0,39,40
 1280 1329 1280 1329 1384 1438 c 1,41,-1
 1384 1395 l 1,42,-1
 1243 1210 l 1,43,44
 1191 1178 1191 1178 1077 1178 c 0,45,46
 985 1178 985 1178 872 1198 c 1,47,48
 795 1145 795 1145 740.5 1082.5 c 128,-1,49
 686 1020 686 1020 686 950 c 0,50,51
 686 885 686 885 774 788 c 0,52,53
 928 617 928 617 928 528 c 0,54,55
 928 461 928 461 863 384 c 128,-1,56
 798 307 798 307 698 215 c 1,57,58
 805 164 805 164 861.5 141.5 c 128,-1,59
 918 119 918 119 971 119 c 0,60,61
 1087 119 1087 119 1245 272 c 1,62,-1
 1266 240 l 1,63,64
 1177 136 1177 136 1094.5 63 c 128,-1,65
 1012 -10 1012 -10 918 -55 c 1,66,67
 874 -49 874 -49 831 -34 c 128,-1,68
 788 -19 788 -19 757.5 -4.5 c 128,-1,69
 727 10 727 10 666 43 c 1,70,71
 569 98 569 98 479 98 c 0,72,73
 377 98 377 98 229 -23 c 1,74,-1
 207 10 l 1,0,1
EndSplineSet
EndChar

StartChar: a
Encoding: 97 97 81
Width: 1024
Flags: W
LayerCount: 2
Fore
SplineSet
317 -74 m 1,0,1
 225 22 225 22 139 133 c 1,2,3
 133 229 133 229 133 324 c 0,4,5
 133 554 133 554 176 748 c 1,6,-1
 520 965 l 1,7,8
 611 901 611 901 711 883 c 1,9,-1
 846 952 l 1,10,-1
 862 940 l 1,11,12
 825 687 825 687 825 524 c 0,13,14
 825 493 825 493 826.5 445 c 128,-1,15
 828 397 828 397 831 343.5 c 128,-1,16
 834 290 834 290 836 244 c 1,17,-1
 907 152 l 1,18,-1
 1008 201 l 1,19,-1
 1018 170 l 1,20,-1
 766 -55 l 1,21,-1
 678 94 l 1,22,23
 678 110 678 110 676 141 c 128,-1,24
 674 172 674 172 674 186 c 1,25,-1
 317 -74 l 1,0,1
303 248 m 1,26,27
 324 221 324 221 374.5 168 c 128,-1,28
 425 115 425 115 432 115 c 0,29,30
 447 115 447 115 459 121 c 1,31,32
 516 156 516 156 559 181 c 128,-1,33
 602 206 602 206 674 250 c 1,34,-1
 672 748 l 1,35,36
 609 748 609 748 552.5 760 c 128,-1,37
 496 772 496 772 381 803 c 1,38,39
 297 715 297 715 297 412 c 0,40,41
 297 331 297 331 303 248 c 1,26,27
EndSplineSet
EndChar

StartChar: n
Encoding: 110 110 82
Width: 1077
Flags: W
LayerCount: 2
Fore
SplineSet
170 94 m 1,0,1
 190 209 190 209 190 420 c 0,2,3
 190 541 190 541 182 745 c 1,4,-1
 133 795 l 1,5,-1
 63 752 l 1,6,-1
 35 778 l 1,7,-1
 248 963 l 1,8,9
 283 926 283 926 358 870 c 1,10,-1
 358 752 l 1,11,-1
 653 973 l 1,12,13
 764 898 764 898 887 854 c 1,14,15
 874 737 874 737 874 510 c 1,16,17
 875 446 875 446 876 372 c 128,-1,18
 877 298 877 298 877 260 c 1,19,20
 882 253 882 253 898 225 c 128,-1,21
 914 197 914 197 927.5 182.5 c 128,-1,22
 941 168 941 168 958 168 c 0,23,24
 962 168 962 168 977 178 c 1,25,-1
 1047 219 l 1,26,-1
 1051 180 l 1,27,-1
 807 -39 l 1,28,-1
 694 133 l 1,29,30
 711 230 711 230 711 401 c 0,31,32
 711 571 711 571 700 731 c 1,33,34
 628 771 628 771 506 786 c 1,35,-1
 358 698 l 1,36,-1
 358 274 l 2,37,38
 358 225 358 225 365 217 c 1,39,-1
 444 106 l 1,40,-1
 268 -47 l 1,41,42
 227 28 227 28 170 94 c 1,0,1
EndSplineSet
EndChar

StartChar: onealt
Encoding: 196 196 83
Width: 774
Flags: W
LayerCount: 2
Fore
SplineSet
326 -4 m 1,0,1
 328 67 328 67 330 210 c 128,-1,2
 332 353 332 353 333 460 c 128,-1,3
 334 567 334 567 334 656 c 128,-1,4
 334 745 334 745 334 852 c 0,5,6
 334 1063 334 1063 324 1163 c 0,7,8
 321 1190 321 1190 301.5 1209.5 c 128,-1,9
 282 1229 282 1229 256 1229 c 2,10,-1
 111 1229 l 1,11,-1
 111 1276 l 1,12,-1
 506 1440 l 1,13,-1
 520 1427 l 1,14,15
 516 1334 516 1334 511 1194 c 128,-1,16
 506 1054 506 1054 505 989 c 128,-1,17
 504 924 504 924 504 862 c 0,18,19
 504 676 504 676 505 542.5 c 128,-1,20
 506 409 506 409 509 287.5 c 128,-1,21
 512 166 512 166 520 35 c 1,22,-1
 346 -20 l 1,23,-1
 326 -4 l 1,0,1
EndSplineSet
EndChar

StartChar: parenleft
Encoding: 40 40 84
Width: 795
Flags: W
LayerCount: 2
Fore
SplineSet
418 -139 m 1,0,1
 442 -207 442 -207 492.5 -270.5 c 128,-1,2
 543 -334 543 -334 600 -352 c 1,3,-1
 600 -381 l 1,4,5
 472 -357 472 -357 396.5 -253 c 128,-1,6
 321 -149 321 -149 284.5 1 c 128,-1,7
 248 151 248 151 239.5 289.5 c 128,-1,8
 231 428 231 428 231 573 c 0,9,10
 231 907 231 907 303 1174.5 c 128,-1,11
 375 1442 375 1442 600 1509 c 1,12,-1
 600 1473 l 1,13,14
 486 1416 486 1416 427 1254.5 c 128,-1,15
 368 1093 368 1093 352 920 c 128,-1,16
 336 747 336 747 336 561 c 0,17,18
 336 420 336 420 343 293 c 128,-1,19
 350 166 350 166 373 37 c 1,20,21
 389 -61 389 -61 418 -139 c 1,0,1
EndSplineSet
EndChar

StartChar: five
Encoding: 53 53 85
Width: 1026
Flags: W
LayerCount: 2
Fore
SplineSet
96 -326 m 1,0,-1
 121 -274 l 1,1,2
 219 -313 219 -313 319 -313 c 0,3,4
 400 -313 400 -313 466.5 -287.5 c 128,-1,5
 533 -262 533 -262 582 -214.5 c 128,-1,6
 631 -167 631 -167 657.5 -100.5 c 128,-1,7
 684 -34 684 -34 684 47 c 0,8,9
 684 178 684 178 617 262 c 128,-1,10
 550 346 550 346 422 346 c 0,11,12
 309 346 309 346 201 233 c 1,13,-1
 164 256 l 1,14,-1
 164 938 l 1,15,-1
 860 938 l 1,16,-1
 813 774 l 1,17,-1
 283 774 l 2,18,19
 248 774 248 774 248 750 c 2,20,-1
 248 389 l 1,21,-1
 266 381 l 1,22,23
 397 440 397 440 528 440 c 0,24,25
 636 440 636 440 721 398 c 128,-1,26
 806 356 806 356 853.5 276 c 128,-1,27
 901 196 901 196 901 86 c 0,28,29
 901 -35 901 -35 853.5 -124 c 128,-1,30
 806 -213 806 -213 725 -268 c 128,-1,31
 644 -323 644 -323 539 -350 c 128,-1,32
 434 -377 434 -377 319 -377 c 0,33,34
 227 -377 227 -377 96 -326 c 1,0,-1
EndSplineSet
EndChar

StartChar: I
Encoding: 73 73 86
Width: 1135
Flags: W
LayerCount: 2
Fore
SplineSet
88 -33 m 1,0,-1
 78 0 l 1,1,2
 160 119 160 119 295 240 c 1,3,4
 312 268 312 268 326 268 c 0,5,6
 343 268 343 268 352.5 235 c 128,-1,7
 362 202 362 202 378.5 153 c 128,-1,8
 395 104 395 104 431 73.5 c 128,-1,9
 467 43 467 43 535 43 c 0,10,11
 611 43 611 43 670 102 c 128,-1,12
 729 161 729 161 752 240 c 1,13,14
 774 324 774 324 774 424 c 0,15,16
 774 525 774 525 752 686 c 1,17,18
 737 819 737 819 737 872 c 0,19,20
 737 896 737 896 741 948 c 1,21,22
 788 1000 788 1000 829.5 1040.5 c 128,-1,23
 871 1081 871 1081 917.5 1118 c 128,-1,24
 964 1155 964 1155 1014 1188 c 1,25,-1
 1047 1176 l 1,26,27
 986 1117 986 1117 945.5 1061 c 128,-1,28
 905 1005 905 1005 905 948 c 1,29,30
 907 926 907 926 911 872.5 c 128,-1,31
 915 819 915 819 915 817 c 0,32,33
 948 615 948 615 948 500 c 0,34,35
 948 435 948 435 937 371 c 128,-1,36
 926 307 926 307 899 250 c 128,-1,37
 872 193 872 193 829 152 c 1,38,39
 733 56 733 56 623 0.5 c 128,-1,40
 513 -55 513 -55 393 -55 c 0,41,42
 341 -55 341 -55 297 -30 c 128,-1,43
 253 -5 253 -5 197 43 c 1,44,-1
 88 -33 l 1,0,-1
61 969 m 1,45,46
 94 1067 94 1067 121 1134.5 c 128,-1,47
 148 1202 148 1202 190 1265 c 128,-1,48
 232 1328 232 1328 292 1366.5 c 128,-1,49
 352 1405 352 1405 436 1405 c 0,50,51
 495 1405 495 1405 576 1374 c 128,-1,52
 657 1343 657 1343 754 1296 c 0,53,54
 822 1264 822 1264 862 1264 c 0,55,56
 928 1264 928 1264 1069 1372 c 1,57,-1
 1092 1339 l 1,58,59
 937 1198 937 1198 774 1112 c 1,60,61
 634 1166 634 1166 542.5 1198.5 c 128,-1,62
 451 1231 451 1231 393 1231 c 0,63,64
 285 1231 285 1231 215.5 1150.5 c 128,-1,65
 146 1070 146 1070 98 948 c 1,66,-1
 61 969 l 1,45,46
EndSplineSet
EndChar

StartChar: V
Encoding: 86 86 87
Width: 1702
Flags: W
LayerCount: 2
Fore
SplineSet
186 53 m 1,0,-1
 164 86 l 1,1,2
 226 156 226 156 293 215.5 c 128,-1,3
 360 275 360 275 426 315 c 1,4,5
 494 315 494 315 555 351.5 c 128,-1,6
 616 388 616 388 655 446 c 0,7,8
 698 511 698 511 709.5 610 c 128,-1,9
 721 709 721 709 721 840 c 0,10,11
 721 1023 721 1023 639 1154.5 c 128,-1,12
 557 1286 557 1286 383 1286 c 0,13,14
 317 1286 317 1286 257 1246 c 128,-1,15
 197 1206 197 1206 197 1145 c 0,16,17
 197 1098 197 1098 225.5 1053.5 c 128,-1,18
 254 1009 254 1009 305 948 c 1,19,20
 393 851 393 851 393 784 c 0,21,22
 393 732 393 732 352 679 c 128,-1,23
 311 626 311 626 253 583 c 128,-1,24
 195 540 195 540 143 512 c 1,25,-1
 111 545 l 1,26,27
 242 617 242 617 242 696 c 0,28,29
 242 725 242 725 221.5 756.5 c 128,-1,30
 201 788 201 788 166 827 c 0,31,32
 55 949 55 949 55 1014 c 0,33,34
 55 1063 55 1063 75 1106.5 c 128,-1,35
 95 1150 95 1150 123.5 1187 c 128,-1,36
 152 1224 152 1224 197 1274 c 1,37,38
 328 1405 328 1405 524 1405 c 0,39,40
 811 1405 811 1405 879 1126 c 1,41,-1
 983 1231 l 1,42,43
 1157 1405 1157 1405 1276 1405 c 0,44,45
 1370 1405 1370 1405 1473 1329 c 0,46,47
 1560 1264 1560 1264 1638 1264 c 0,48,49
 1669 1264 1669 1264 1690 1274 c 1,50,-1
 1690 1241 l 1,51,52
 1632 1203 1632 1203 1585 1148 c 128,-1,53
 1538 1093 1538 1093 1510.5 1028 c 128,-1,54
 1483 963 1483 963 1483 893 c 0,55,56
 1483 822 1483 822 1503 686 c 1,57,58
 1536 510 1536 510 1536 446 c 0,59,60
 1536 370 1536 370 1506 289.5 c 128,-1,61
 1476 209 1476 209 1425 158 c 0,62,63
 1404 136 1404 136 1364 106 c 128,-1,64
 1324 76 1324 76 1260 33 c 128,-1,65
 1196 -10 1196 -10 1165 -33 c 0,66,67
 1147 -47 1147 -47 1122 -51 c 128,-1,68
 1097 -55 1097 -55 1057 -55 c 0,69,70
 984 -55 984 -55 915.5 -26.5 c 128,-1,71
 847 2 847 2 752 53 c 1,72,73
 531 184 531 184 436 184 c 0,74,75
 299 184 299 184 186 53 c 1,0,-1
600 305 m 1,76,77
 640 305 640 305 705.5 269 c 128,-1,78
 771 233 771 233 850 184 c 1,79,80
 965 120 965 120 1028 91.5 c 128,-1,81
 1091 63 1091 63 1145 63 c 0,82,83
 1238 63 1238 63 1283.5 117 c 128,-1,84
 1329 171 1329 171 1340.5 244 c 128,-1,85
 1352 317 1352 317 1352 424 c 0,86,87
 1352 473 1352 473 1341 598 c 0,88,89
 1331 715 1331 715 1331 805 c 0,90,91
 1331 876 1331 876 1354 948 c 1,92,-1
 1505 1122 l 1,93,94
 1439 1122 1439 1122 1341 1188 c 0,95,96
 1287 1225 1287 1225 1244.5 1244.5 c 128,-1,97
 1202 1264 1202 1264 1157 1264 c 0,98,99
 1087 1264 1087 1264 1012 1172.5 c 128,-1,100
 937 1081 937 1081 895 991 c 1,101,102
 895 848 895 848 864.5 712 c 128,-1,103
 834 576 834 576 774 457 c 1,104,-1
 600 305 l 1,76,77
EndSplineSet
EndChar

StartChar: c
Encoding: 99 99 88
Width: 797
Flags: W
LayerCount: 2
Fore
SplineSet
158 170 m 1,0,1
 147 331 147 331 147 434 c 0,2,3
 147 627 147 627 172 743 c 1,4,-1
 510 954 l 1,5,6
 601 947 601 947 731 864 c 1,7,-1
 625 702 l 1,8,-1
 604 696 l 1,9,10
 489 799 489 799 362 799 c 1,11,12
 329 740 329 740 321 662 c 128,-1,13
 313 584 313 584 313 475 c 0,14,15
 313 405 313 405 322 295 c 1,16,17
 364 249 364 249 410 205.5 c 128,-1,18
 456 162 456 162 502 119 c 1,19,20
 535 128 535 128 565.5 142 c 128,-1,21
 596 156 596 156 628 173.5 c 128,-1,22
 660 191 660 191 717 223 c 1,23,-1
 735 188 l 1,24,-1
 383 -59 l 1,25,26
 324 -9 324 -9 276 40.5 c 128,-1,27
 228 90 228 90 158 170 c 1,0,1
EndSplineSet
EndChar

StartChar: p
Encoding: 112 112 89
Width: 1024
Flags: W
LayerCount: 2
Fore
SplineSet
160 -414 m 1,0,1
 178 -32 178 -32 178 96 c 1,2,3
 100 96 100 96 47 49 c 1,4,-1
 25 78 l 1,5,6
 149 192 149 192 178 215 c 1,7,-1
 178 719 l 1,8,-1
 96 836 l 2,9,10
 86 849 86 849 86 864 c 0,11,12
 86 890 86 890 115.5 935.5 c 128,-1,13
 145 981 145 981 182.5 1026.5 c 128,-1,14
 220 1072 220 1072 256 1110 c 1,15,-1
 285 1090 l 1,16,17
 248 1046 248 1046 248 1001 c 0,18,19
 248 927 248 927 342 829 c 1,20,-1
 338 758 l 1,21,22
 418 814 418 814 487.5 869 c 128,-1,23
 557 924 557 924 629 981 c 1,24,25
 726 903 726 903 870 848 c 1,26,27
 881 700 881 700 881 567 c 0,28,29
 881 430 881 430 873 335.5 c 128,-1,30
 865 241 865 241 834 158 c 1,31,-1
 559 -68 l 1,32,33
 448 28 448 28 336 49 c 1,34,35
 336 -173 336 -173 344 -348 c 1,36,-1
 190 -434 l 1,37,-1
 160 -414 l 1,0,1
338 193 m 1,38,39
 411 193 411 193 479 166 c 128,-1,40
 547 139 547 139 653 84 c 1,41,42
 681 140 681 140 694 200.5 c 128,-1,43
 707 261 707 261 711 320 c 128,-1,44
 715 379 715 379 715 465 c 0,45,46
 715 559 715 559 702 719 c 1,47,48
 650 746 650 746 522 793 c 1,49,50
 435 762 435 762 340 688 c 1,51,-1
 338 193 l 1,38,39
EndSplineSet
EndChar

StartChar: asterisk
Encoding: 42 42 90
Width: 567
Flags: W
LayerCount: 2
Fore
SplineSet
92 1012 m 1,0,-1
 68 1057 l 1,1,2
 161 1115 161 1115 244 1174 c 1,3,4
 132 1251 132 1251 68 1288 c 1,5,-1
 113 1335 l 1,6,7
 173 1278 173 1278 262 1206 c 1,8,9
 262 1313 262 1313 256 1417 c 1,10,-1
 311 1417 l 1,11,12
 298 1306 298 1306 295 1212 c 1,13,14
 378 1273 378 1273 449 1337 c 1,15,-1
 479 1296 l 1,16,17
 384 1240 384 1240 299 1178 c 1,18,19
 329 1157 329 1157 361 1134 c 128,-1,20
 393 1111 393 1111 426 1090 c 128,-1,21
 459 1069 459 1069 479 1057 c 1,22,-1
 444 1014 l 1,23,24
 339 1101 339 1101 293 1137 c 1,25,-1
 293 1130 l 2,26,27
 293 1096 293 1096 297 1026 c 128,-1,28
 301 956 301 956 305 920 c 1,29,-1
 256 920 l 1,30,31
 260 996 260 996 260 1036 c 1,32,33
 262 1073 262 1073 262 1151 c 1,34,35
 185 1095 185 1095 92 1012 c 1,0,-1
EndSplineSet
EndChar

StartChar: seven
Encoding: 55 55 91
Width: 1026
Flags: W
LayerCount: 2
Fore
SplineSet
82 -371 m 1,0,-1
 76 -344 l 1,1,2
 188 -187 188 -187 259 -82.5 c 128,-1,3
 330 22 330 22 436.5 185.5 c 128,-1,4
 543 349 543 349 647.5 513.5 c 128,-1,5
 752 678 752 678 811 772 c 1,6,-1
 799 782 l 1,7,-1
 119 782 l 1,8,-1
 184 958 l 1,9,10
 278 946 278 946 390 942 c 128,-1,11
 502 938 502 938 608 938 c 2,12,-1
 1020 938 l 1,13,-1
 1020 905 l 1,14,15
 886 715 886 715 795 581.5 c 128,-1,16
 704 448 704 448 595 274 c 128,-1,17
 486 100 486 100 396.5 -57.5 c 128,-1,18
 307 -215 307 -215 231 -371 c 1,19,-1
 82 -371 l 1,0,-1
EndSplineSet
EndChar

StartChar: K
Encoding: 75 75 92
Width: 1368
Flags: W
LayerCount: 2
Fore
SplineSet
33 63 m 1,0,-1
 164 217 l 1,1,2
 186 159 186 159 222.5 117.5 c 128,-1,3
 259 76 259 76 307 76 c 0,4,5
 449 76 449 76 449 293 c 0,6,7
 449 419 449 419 393 600 c 1,8,9
 328 818 328 818 328 893 c 2,10,-1
 328 903 l 1,11,12
 374 1037 374 1037 468.5 1151 c 128,-1,13
 563 1265 563 1265 689.5 1330 c 128,-1,14
 816 1395 816 1395 961 1395 c 0,15,16
 1054 1395 1054 1395 1138.5 1364.5 c 128,-1,17
 1223 1334 1223 1334 1266 1264 c 1,18,19
 1267 1255 1267 1255 1267.5 1247 c 128,-1,20
 1268 1239 1268 1239 1268 1227 c 0,21,22
 1268 1140 1268 1140 1233 1024 c 1,23,-1
 1200 1014 l 1,24,25
 1200 1113 1200 1113 1150 1173.5 c 128,-1,26
 1100 1234 1100 1234 1018.5 1260 c 128,-1,27
 937 1286 937 1286 840 1286 c 0,28,29
 735 1286 735 1286 659 1247 c 128,-1,30
 583 1208 583 1208 540.5 1132.5 c 128,-1,31
 498 1057 498 1057 498 954 c 0,32,33
 498 857 498 857 535 752 c 1,34,35
 791 1024 791 1024 961 1024 c 0,36,37
 1012 1024 1012 1024 1045 992.5 c 128,-1,38
 1078 961 1078 961 1093.5 920 c 128,-1,39
 1109 879 1109 879 1124 817 c 1,40,41
 1135 779 1135 779 1165 755 c 128,-1,42
 1195 731 1195 731 1233 731 c 0,43,44
 1253 731 1253 731 1276 741 c 1,45,-1
 1266 696 l 1,46,-1
 950 555 l 1,47,48
 989 555 989 555 1049 522 c 1,49,50
 1089 457 1089 457 1135 250 c 0,51,52
 1146 197 1146 197 1177.5 153 c 128,-1,53
 1209 109 1209 109 1255 109 c 0,54,55
 1340 109 1340 109 1397 152 c 1,56,-1
 1397 109 l 1,57,58
 1233 -55 1233 -55 1135 -55 c 0,59,60
 1072 -55 1072 -55 1032.5 16 c 128,-1,61
 993 87 993 87 983 162 c 1,62,63
 966 277 966 277 954 329.5 c 128,-1,64
 942 382 942 382 900 424.5 c 128,-1,65
 858 467 858 467 774 467 c 0,66,67
 684 467 684 467 590 424 c 1,68,69
 590 329 590 329 580 260 c 1,70,71
 407 -2 407 -2 209 -55 c 1,72,73
 105 -41 105 -41 33 63 c 1,0,-1
590 479 m 1,74,-1
 1030 653 l 1,75,76
 1013 669 1013 669 1002 688 c 128,-1,77
 991 707 991 707 983 727.5 c 128,-1,78
 975 748 975 748 963 784 c 0,79,80
 949 830 949 830 913.5 861.5 c 128,-1,81
 878 893 878 893 831 893 c 0,82,83
 747 893 747 893 675.5 825.5 c 128,-1,84
 604 758 604 758 547 664 c 1,85,86
 570 604 570 604 590 479 c 1,74,-1
EndSplineSet
EndChar

StartChar: X
Encoding: 88 88 93
Width: 1473
Flags: W
LayerCount: 2
Fore
SplineSet
55 63 m 1,0,-1
 176 207 l 1,1,2
 201 158 201 158 244.5 127 c 128,-1,3
 288 96 288 96 338 96 c 0,4,5
 436 96 436 96 535 195 c 0,6,7
 592 252 592 252 626.5 333 c 128,-1,8
 661 414 661 414 674.5 502.5 c 128,-1,9
 688 591 688 591 688 686 c 1,10,11
 467 682 467 682 328 664 c 1,12,-1
 403 752 l 1,13,-1
 688 752 l 1,14,15
 688 897 688 897 678 969 c 0,16,17
 663 1076 663 1076 613.5 1153.5 c 128,-1,18
 564 1231 564 1231 469 1231 c 0,19,20
 417 1231 417 1231 366.5 1204.5 c 128,-1,21
 316 1178 316 1178 272.5 1135 c 128,-1,22
 229 1092 229 1092 197 1044 c 1,23,-1
 160 1077 l 1,24,-1
 463 1405 l 1,25,26
 539 1400 539 1400 601 1377 c 128,-1,27
 663 1354 663 1354 709 1307 c 1,28,29
 772 1245 772 1245 819 1057 c 1,30,31
 879 1178 879 1178 977.5 1267.5 c 128,-1,32
 1076 1357 1076 1357 1204 1409 c 1,33,34
 1225 1361 1225 1361 1246 1315.5 c 128,-1,35
 1267 1270 1267 1270 1297 1236 c 128,-1,36
 1327 1202 1327 1202 1364 1202 c 0,37,38
 1384 1202 1384 1202 1452 1235 c 1,39,-1
 1452 1198 l 1,40,-1
 1243 1077 l 1,41,42
 1191 1102 1191 1102 1129 1157.5 c 128,-1,43
 1067 1213 1067 1213 1051 1257 c 1,44,45
 982 1211 982 1211 931.5 1124.5 c 128,-1,46
 881 1038 881 1038 855 939.5 c 128,-1,47
 829 841 829 841 829 752 c 1,48,-1
 1190 752 l 1,49,-1
 1112 664 l 1,50,51
 1081 668 1081 668 1035 672.5 c 128,-1,52
 989 677 989 677 933 680 c 128,-1,53
 877 683 877 683 829 684 c 1,54,55
 829 558 829 558 858.5 426.5 c 128,-1,56
 888 295 888 295 963.5 202 c 128,-1,57
 1039 109 1039 109 1167 109 c 0,58,59
 1221 109 1221 109 1272 132.5 c 128,-1,60
 1323 156 1323 156 1384 197 c 1,61,-1
 1384 152 l 1,62,-1
 1157 -33 l 1,63,64
 1084 -55 1084 -55 1057 -55 c 0,65,66
 964 -55 964 -55 897 -1 c 128,-1,67
 830 53 830 53 789.5 138 c 128,-1,68
 749 223 749 223 731 315 c 1,69,-1
 643 227 l 2,70,71
 547 131 547 131 428 43 c 128,-1,72
 309 -45 309 -45 229 -45 c 0,73,74
 129 -45 129 -45 55 63 c 1,0,-1
EndSplineSet
EndChar

StartChar: asciicircum
Encoding: 94 94 94
Width: 1022
Flags: W
LayerCount: 2
Fore
SplineSet
0 950 m 1,0,-1
 512 1503 l 1,1,-1
 1014 995 l 1,2,-1
 934 940 l 1,3,-1
 508 1378 l 1,4,-1
 47 926 l 1,5,-1
 0 950 l 1,0,-1
EndSplineSet
EndChar

StartChar: e
Encoding: 101 101 95
Width: 819
Flags: W
LayerCount: 2
Fore
SplineSet
156 174 m 1,0,1
 143 281 143 281 143 397 c 0,2,3
 143 561 143 561 172 750 c 1,4,-1
 504 956 l 1,5,6
 556 890 556 890 615.5 836.5 c 128,-1,7
 675 783 675 783 745 733 c 1,8,9
 430 435 430 435 309 340 c 1,10,11
 309 319 309 319 313 283 c 1,12,13
 421 171 421 171 524 125 c 1,14,15
 543 125 543 125 553 129 c 2,16,-1
 723 211 l 1,17,-1
 733 178 l 1,18,19
 552 37 552 37 387 -63 c 1,20,21
 226 85 226 85 156 174 c 1,0,1
305 430 m 1,22,23
 486 545 486 545 578 641 c 1,24,25
 447 723 447 723 360 813 c 1,26,27
 326 813 326 813 315.5 681 c 128,-1,28
 305 549 305 549 305 430 c 1,22,23
EndSplineSet
EndChar

StartChar: r
Encoding: 114 114 96
Width: 797
Flags: W
LayerCount: 2
Fore
SplineSet
199 154 m 1,0,1
 217 305 217 305 217 406 c 0,2,3
 217 479 217 479 213 598 c 128,-1,4
 209 717 209 717 199 729 c 0,5,6
 197 730 197 730 195 738 c 128,-1,7
 193 746 193 746 190 748 c 0,8,9
 177 759 177 759 168.5 765 c 128,-1,10
 160 771 160 771 133 793 c 1,11,-1
 55 760 l 1,12,-1
 31 778 l 1,13,14
 98 845 98 845 140 885.5 c 128,-1,15
 182 926 182 926 238 971 c 1,16,17
 314 895 314 895 373 846 c 1,18,-1
 373 782 l 1,19,-1
 596 961 l 1,20,21
 672 813 672 813 731 813 c 0,22,23
 743 813 743 813 764.5 824 c 128,-1,24
 786 835 786 835 791 836 c 1,25,-1
 793 807 l 1,26,27
 775 789 775 789 737.5 755.5 c 128,-1,28
 700 722 700 722 684 707 c 1,29,30
 664 686 664 686 616 686 c 0,31,32
 590 686 590 686 562 700.5 c 128,-1,33
 534 715 534 715 514 731 c 128,-1,34
 494 747 494 747 459 776 c 1,35,-1
 373 694 l 1,36,-1
 373 311 l 2,37,38
 373 239 373 239 520 123 c 1,39,-1
 702 209 l 1,40,-1
 709 170 l 1,41,-1
 410 -43 l 1,42,43
 323 25 323 25 199 154 c 1,0,1
EndSplineSet
EndChar
